<mxfile host="app.diagrams.net" modified="2020-12-02T01:52:48.030Z" agent="5.0 (Windows NT 10.0; Win64; x64) AppleWebKit/537.36 (KHTML, like Gecko) Chrome/86.0.4240.198 Safari/537.36" etag="1ObAk7M6X4a7nxUjLCmE" version="13.10.4" type="github">
  <diagram id="DB5_-xC0b4QIcxBLuVZl" name="Page-1">
    <mxGraphModel dx="2249" dy="762" grid="1" gridSize="10" guides="1" tooltips="1" connect="1" arrows="1" fold="1" page="1" pageScale="1" pageWidth="827" pageHeight="1169" math="0" shadow="0">
      <root>
        <mxCell id="0" />
        <mxCell id="1" parent="0" />
        <mxCell id="3dwhWuTvUrP5A4k3dfD7-244" value="登录过程页面" style="shape=umlFrame;whiteSpace=wrap;html=1;strokeColor=#000000;fillColor=none;width=120;height=20;" parent="1" vertex="1">
          <mxGeometry x="2360" y="480" width="800" height="200" as="geometry" />
        </mxCell>
        <mxCell id="3dwhWuTvUrP5A4k3dfD7-250" value="绑定登录页面" style="shape=umlFrame;whiteSpace=wrap;html=1;strokeColor=#000000;fillColor=none;width=120;height=20;" parent="1" vertex="1">
          <mxGeometry x="2360" y="720" width="800" height="120" as="geometry" />
        </mxCell>
        <mxCell id="3dwhWuTvUrP5A4k3dfD7-245" value="" style="edgeStyle=none;rounded=0;orthogonalLoop=1;jettySize=auto;html=1;startArrow=none;startFill=0;endArrow=classic;endFill=1;" parent="1" source="3dwhWuTvUrP5A4k3dfD7-243" target="3dwhWuTvUrP5A4k3dfD7-244" edge="1">
          <mxGeometry relative="1" as="geometry" />
        </mxCell>
        <mxCell id="3dwhWuTvUrP5A4k3dfD7-243" value="主要登录页面" style="shape=umlFrame;whiteSpace=wrap;html=1;strokeColor=#000000;fillColor=none;width=120;height=20;" parent="1" vertex="1">
          <mxGeometry x="2360" y="160" width="800" height="280" as="geometry" />
        </mxCell>
        <mxCell id="3dwhWuTvUrP5A4k3dfD7-93" style="edgeStyle=orthogonalEdgeStyle;rounded=0;orthogonalLoop=1;jettySize=auto;html=1;exitX=1;exitY=0.5;exitDx=0;exitDy=0;entryX=0;entryY=0.5;entryDx=0;entryDy=0;" parent="1" source="3dwhWuTvUrP5A4k3dfD7-44" target="3dwhWuTvUrP5A4k3dfD7-92" edge="1">
          <mxGeometry relative="1" as="geometry">
            <Array as="points">
              <mxPoint x="620" y="820" />
              <mxPoint x="620" y="740" />
            </Array>
          </mxGeometry>
        </mxCell>
        <mxCell id="3dwhWuTvUrP5A4k3dfD7-94" value="需要验证登录密码" style="edgeLabel;html=1;align=center;verticalAlign=middle;resizable=0;points=[];" parent="3dwhWuTvUrP5A4k3dfD7-93" vertex="1" connectable="0">
          <mxGeometry x="0.0083" y="1" relative="1" as="geometry">
            <mxPoint x="59" y="1" as="offset" />
          </mxGeometry>
        </mxCell>
        <mxCell id="3dwhWuTvUrP5A4k3dfD7-96" value="其他错误" style="edgeStyle=orthogonalEdgeStyle;rounded=0;orthogonalLoop=1;jettySize=auto;html=1;exitX=1;exitY=0.5;exitDx=0;exitDy=0;entryX=0;entryY=0.5;entryDx=0;entryDy=0;" parent="1" source="3dwhWuTvUrP5A4k3dfD7-44" target="3dwhWuTvUrP5A4k3dfD7-95" edge="1">
          <mxGeometry x="0.1429" relative="1" as="geometry">
            <Array as="points">
              <mxPoint x="640" y="820" />
              <mxPoint x="640" y="820" />
            </Array>
            <mxPoint as="offset" />
          </mxGeometry>
        </mxCell>
        <mxCell id="3dwhWuTvUrP5A4k3dfD7-5" style="edgeStyle=orthogonalEdgeStyle;rounded=0;orthogonalLoop=1;jettySize=auto;html=1;" parent="1" source="3dwhWuTvUrP5A4k3dfD7-1" target="3dwhWuTvUrP5A4k3dfD7-4" edge="1">
          <mxGeometry relative="1" as="geometry">
            <mxPoint x="160" y="260" as="sourcePoint" />
          </mxGeometry>
        </mxCell>
        <mxCell id="3dwhWuTvUrP5A4k3dfD7-1" value="启动App" style="strokeWidth=2;html=1;shape=mxgraph.flowchart.terminator;whiteSpace=wrap;fillColor=none;strokeColor=#CC99FF;" parent="1" vertex="1">
          <mxGeometry x="-40" y="240" width="160" height="40" as="geometry" />
        </mxCell>
        <mxCell id="3dwhWuTvUrP5A4k3dfD7-9" value="Y" style="edgeStyle=orthogonalEdgeStyle;rounded=0;orthogonalLoop=1;jettySize=auto;html=1;exitX=0.5;exitY=0;exitDx=0;exitDy=0;exitPerimeter=0;" parent="1" source="3dwhWuTvUrP5A4k3dfD7-4" target="3dwhWuTvUrP5A4k3dfD7-8" edge="1">
          <mxGeometry relative="1" as="geometry" />
        </mxCell>
        <mxCell id="3dwhWuTvUrP5A4k3dfD7-13" value="N" style="edgeStyle=orthogonalEdgeStyle;rounded=0;orthogonalLoop=1;jettySize=auto;html=1;exitX=0.5;exitY=1;exitDx=0;exitDy=0;exitPerimeter=0;" parent="1" source="3dwhWuTvUrP5A4k3dfD7-4" target="3dwhWuTvUrP5A4k3dfD7-12" edge="1">
          <mxGeometry relative="1" as="geometry" />
        </mxCell>
        <mxCell id="3dwhWuTvUrP5A4k3dfD7-4" value="牛牛" style="strokeWidth=2;html=1;shape=mxgraph.flowchart.decision;whiteSpace=wrap;fillColor=none;" parent="1" vertex="1">
          <mxGeometry x="200" y="240" width="160" height="40" as="geometry" />
        </mxCell>
        <mxCell id="3dwhWuTvUrP5A4k3dfD7-11" value="Y" style="edgeStyle=orthogonalEdgeStyle;rounded=0;orthogonalLoop=1;jettySize=auto;html=1;exitX=0.5;exitY=0;exitDx=0;exitDy=0;exitPerimeter=0;entryX=0.5;entryY=1;entryDx=0;entryDy=0;entryPerimeter=0;" parent="1" source="3dwhWuTvUrP5A4k3dfD7-8" target="3dwhWuTvUrP5A4k3dfD7-10" edge="1">
          <mxGeometry relative="1" as="geometry" />
        </mxCell>
        <mxCell id="3dwhWuTvUrP5A4k3dfD7-17" value="N" style="edgeStyle=orthogonalEdgeStyle;rounded=0;orthogonalLoop=1;jettySize=auto;html=1;exitX=1;exitY=0.5;exitDx=0;exitDy=0;exitPerimeter=0;entryX=0;entryY=0.5;entryDx=0;entryDy=0;entryPerimeter=0;" parent="1" source="3dwhWuTvUrP5A4k3dfD7-8" target="3dwhWuTvUrP5A4k3dfD7-16" edge="1">
          <mxGeometry relative="1" as="geometry" />
        </mxCell>
        <mxCell id="3dwhWuTvUrP5A4k3dfD7-8" value="上次有登录&lt;br&gt;且未关自动登录" style="strokeWidth=2;html=1;shape=mxgraph.flowchart.decision;whiteSpace=wrap;fillColor=none;" parent="1" vertex="1">
          <mxGeometry x="200" y="160" width="160" height="40" as="geometry" />
        </mxCell>
        <mxCell id="3dwhWuTvUrP5A4k3dfD7-10" value="自动登录&lt;br&gt;进入首页&lt;br&gt;&lt;i&gt;Login&lt;/i&gt;" style="strokeWidth=2;html=1;shape=mxgraph.flowchart.terminator;whiteSpace=wrap;fillColor=none;strokeColor=#CC99FF;" parent="1" vertex="1">
          <mxGeometry x="200" y="80" width="160" height="40" as="geometry" />
        </mxCell>
        <mxCell id="3dwhWuTvUrP5A4k3dfD7-15" value="Y" style="edgeStyle=orthogonalEdgeStyle;rounded=0;orthogonalLoop=1;jettySize=auto;html=1;exitX=0.5;exitY=1;exitDx=0;exitDy=0;exitPerimeter=0;" parent="1" source="3dwhWuTvUrP5A4k3dfD7-12" target="3dwhWuTvUrP5A4k3dfD7-14" edge="1">
          <mxGeometry relative="1" as="geometry" />
        </mxCell>
        <mxCell id="3dwhWuTvUrP5A4k3dfD7-25" style="edgeStyle=orthogonalEdgeStyle;rounded=0;orthogonalLoop=1;jettySize=auto;html=1;exitX=1;exitY=0.5;exitDx=0;exitDy=0;exitPerimeter=0;entryX=0;entryY=0.5;entryDx=0;entryDy=0;entryPerimeter=0;" parent="1" source="3dwhWuTvUrP5A4k3dfD7-12" target="3dwhWuTvUrP5A4k3dfD7-24" edge="1">
          <mxGeometry relative="1" as="geometry" />
        </mxCell>
        <mxCell id="3dwhWuTvUrP5A4k3dfD7-12" value="上次有登录&lt;br&gt;且未关自动登录" style="strokeWidth=2;html=1;shape=mxgraph.flowchart.decision;whiteSpace=wrap;fillColor=none;" parent="1" vertex="1">
          <mxGeometry x="200" y="320" width="160" height="40" as="geometry" />
        </mxCell>
        <mxCell id="3dwhWuTvUrP5A4k3dfD7-14" value="自动登录&lt;br&gt;进入首页&lt;br&gt;&lt;i&gt;Login&lt;/i&gt;" style="strokeWidth=2;html=1;shape=mxgraph.flowchart.terminator;whiteSpace=wrap;fillColor=none;strokeColor=#CC99FF;" parent="1" vertex="1">
          <mxGeometry x="200" y="400" width="160" height="40" as="geometry" />
        </mxCell>
        <mxCell id="3dwhWuTvUrP5A4k3dfD7-21" value="手机号取号&lt;br&gt;手机号短信" style="edgeStyle=orthogonalEdgeStyle;rounded=0;orthogonalLoop=1;jettySize=auto;html=1;exitX=1;exitY=0.5;exitDx=0;exitDy=0;exitPerimeter=0;" parent="1" source="3dwhWuTvUrP5A4k3dfD7-16" target="3dwhWuTvUrP5A4k3dfD7-34" edge="1">
          <mxGeometry x="0.25" relative="1" as="geometry">
            <mxPoint x="680" y="99.99999999999977" as="targetPoint" />
            <Array as="points">
              <mxPoint x="620" y="180" />
              <mxPoint x="620" y="100" />
            </Array>
            <mxPoint as="offset" />
          </mxGeometry>
        </mxCell>
        <mxCell id="3dwhWuTvUrP5A4k3dfD7-16" value="上次登录方式" style="strokeWidth=2;html=1;shape=mxgraph.flowchart.decision;whiteSpace=wrap;fillColor=none;" parent="1" vertex="1">
          <mxGeometry x="440" y="160" width="160" height="40" as="geometry" />
        </mxCell>
        <mxCell id="3dwhWuTvUrP5A4k3dfD7-19" value="牛牛引导登录页" style="shape=process;whiteSpace=wrap;html=1;backgroundOutline=1;fillColor=none;fontStyle=1" parent="1" vertex="1">
          <mxGeometry x="680" y="160" width="160" height="40" as="geometry" />
        </mxCell>
        <mxCell id="3dwhWuTvUrP5A4k3dfD7-20" value="牛牛帐号密码登录页" style="shape=process;whiteSpace=wrap;html=1;backgroundOutline=1;fillColor=none;fontStyle=1" parent="1" vertex="1">
          <mxGeometry x="681" y="240" width="160" height="40" as="geometry" />
        </mxCell>
        <mxCell id="3dwhWuTvUrP5A4k3dfD7-22" value="WX&lt;br&gt;FB&lt;br&gt;无登录" style="edgeStyle=orthogonalEdgeStyle;rounded=0;orthogonalLoop=1;jettySize=auto;html=1;exitX=1;exitY=0.5;exitDx=0;exitDy=0;exitPerimeter=0;entryX=0;entryY=0.5;entryDx=0;entryDy=0;" parent="1" source="3dwhWuTvUrP5A4k3dfD7-16" target="3dwhWuTvUrP5A4k3dfD7-19" edge="1">
          <mxGeometry x="0.25" relative="1" as="geometry">
            <Array as="points">
              <mxPoint x="660" y="180" />
              <mxPoint x="660" y="180" />
            </Array>
            <mxPoint as="offset" />
          </mxGeometry>
        </mxCell>
        <mxCell id="3dwhWuTvUrP5A4k3dfD7-23" value="帐号密码&lt;br&gt;手机号密码&lt;br&gt;其他三方" style="edgeStyle=orthogonalEdgeStyle;rounded=0;orthogonalLoop=1;jettySize=auto;html=1;exitX=1;exitY=0.5;exitDx=0;exitDy=0;exitPerimeter=0;entryX=0;entryY=0.5;entryDx=0;entryDy=0;" parent="1" source="3dwhWuTvUrP5A4k3dfD7-16" target="3dwhWuTvUrP5A4k3dfD7-20" edge="1">
          <mxGeometry x="0.25" relative="1" as="geometry">
            <Array as="points">
              <mxPoint x="620" y="180" />
              <mxPoint x="620" y="260" />
            </Array>
            <mxPoint as="offset" />
          </mxGeometry>
        </mxCell>
        <mxCell id="3dwhWuTvUrP5A4k3dfD7-27" value="N" style="edgeStyle=orthogonalEdgeStyle;rounded=0;orthogonalLoop=1;jettySize=auto;html=1;exitX=1;exitY=0.5;exitDx=0;exitDy=0;exitPerimeter=0;entryX=0;entryY=0.5;entryDx=0;entryDy=0;" parent="1" source="3dwhWuTvUrP5A4k3dfD7-24" target="3dwhWuTvUrP5A4k3dfD7-26" edge="1">
          <mxGeometry relative="1" as="geometry" />
        </mxCell>
        <mxCell id="3dwhWuTvUrP5A4k3dfD7-29" value="Y" style="edgeStyle=orthogonalEdgeStyle;rounded=0;orthogonalLoop=1;jettySize=auto;html=1;exitX=0.5;exitY=1;exitDx=0;exitDy=0;exitPerimeter=0;entryX=0;entryY=0.5;entryDx=0;entryDy=0;" parent="1" source="3dwhWuTvUrP5A4k3dfD7-24" target="3dwhWuTvUrP5A4k3dfD7-28" edge="1">
          <mxGeometry relative="1" as="geometry" />
        </mxCell>
        <mxCell id="3dwhWuTvUrP5A4k3dfD7-24" value="首次登录" style="strokeWidth=2;html=1;shape=mxgraph.flowchart.decision;whiteSpace=wrap;fillColor=none;" parent="1" vertex="1">
          <mxGeometry x="440" y="320" width="160" height="40" as="geometry" />
        </mxCell>
        <mxCell id="3dwhWuTvUrP5A4k3dfD7-26" value="Moomoo帐号密码登录页" style="shape=process;whiteSpace=wrap;html=1;backgroundOutline=1;fillColor=none;fontStyle=1" parent="1" vertex="1">
          <mxGeometry x="680" y="320" width="160" height="40" as="geometry" />
        </mxCell>
        <mxCell id="3dwhWuTvUrP5A4k3dfD7-28" value="Moomoo首次登录页" style="shape=process;whiteSpace=wrap;html=1;backgroundOutline=1;fillColor=none;fontStyle=1" parent="1" vertex="1">
          <mxGeometry x="680" y="400" width="160" height="40" as="geometry" />
        </mxCell>
        <mxCell id="3dwhWuTvUrP5A4k3dfD7-36" value="Y" style="edgeStyle=orthogonalEdgeStyle;rounded=0;orthogonalLoop=1;jettySize=auto;html=1;exitX=0.5;exitY=0;exitDx=0;exitDy=0;exitPerimeter=0;entryX=0.5;entryY=1;entryDx=0;entryDy=0;" parent="1" source="3dwhWuTvUrP5A4k3dfD7-34" target="3dwhWuTvUrP5A4k3dfD7-35" edge="1">
          <mxGeometry relative="1" as="geometry" />
        </mxCell>
        <mxCell id="3dwhWuTvUrP5A4k3dfD7-38" value="N" style="edgeStyle=orthogonalEdgeStyle;rounded=0;orthogonalLoop=1;jettySize=auto;html=1;exitX=1;exitY=0.5;exitDx=0;exitDy=0;exitPerimeter=0;" parent="1" source="3dwhWuTvUrP5A4k3dfD7-34" target="3dwhWuTvUrP5A4k3dfD7-37" edge="1">
          <mxGeometry relative="1" as="geometry" />
        </mxCell>
        <mxCell id="3dwhWuTvUrP5A4k3dfD7-34" value="取号成功？" style="strokeWidth=2;html=1;shape=mxgraph.flowchart.decision;whiteSpace=wrap;fillColor=none;" parent="1" vertex="1">
          <mxGeometry x="680" y="80" width="160" height="40" as="geometry" />
        </mxCell>
        <mxCell id="3dwhWuTvUrP5A4k3dfD7-35" value="手机号一键登录页" style="shape=process;whiteSpace=wrap;html=1;backgroundOutline=1;fillColor=none;fontStyle=1" parent="1" vertex="1">
          <mxGeometry x="680" width="160" height="40" as="geometry" />
        </mxCell>
        <mxCell id="3dwhWuTvUrP5A4k3dfD7-37" value="手机号短信验证码登录页" style="shape=process;whiteSpace=wrap;html=1;backgroundOutline=1;fillColor=none;fontStyle=1" parent="1" vertex="1">
          <mxGeometry x="920" y="80" width="160" height="40" as="geometry" />
        </mxCell>
        <mxCell id="3dwhWuTvUrP5A4k3dfD7-41" style="edgeStyle=orthogonalEdgeStyle;rounded=0;orthogonalLoop=1;jettySize=auto;html=1;exitX=1;exitY=0.5;exitDx=0;exitDy=0;exitPerimeter=0;entryX=0;entryY=0.5;entryDx=0;entryDy=0;" parent="1" source="3dwhWuTvUrP5A4k3dfD7-39" target="3dwhWuTvUrP5A4k3dfD7-40" edge="1">
          <mxGeometry relative="1" as="geometry" />
        </mxCell>
        <mxCell id="3dwhWuTvUrP5A4k3dfD7-48" style="edgeStyle=orthogonalEdgeStyle;rounded=0;orthogonalLoop=1;jettySize=auto;html=1;exitX=1;exitY=0.5;exitDx=0;exitDy=0;exitPerimeter=0;entryX=0;entryY=0.5;entryDx=0;entryDy=0;" parent="1" source="3dwhWuTvUrP5A4k3dfD7-39" target="3dwhWuTvUrP5A4k3dfD7-47" edge="1">
          <mxGeometry relative="1" as="geometry" />
        </mxCell>
        <mxCell id="3dwhWuTvUrP5A4k3dfD7-51" style="edgeStyle=orthogonalEdgeStyle;rounded=0;orthogonalLoop=1;jettySize=auto;html=1;exitX=1;exitY=0.5;exitDx=0;exitDy=0;exitPerimeter=0;" parent="1" source="3dwhWuTvUrP5A4k3dfD7-39" target="3dwhWuTvUrP5A4k3dfD7-49" edge="1">
          <mxGeometry relative="1" as="geometry" />
        </mxCell>
        <mxCell id="3dwhWuTvUrP5A4k3dfD7-52" style="edgeStyle=orthogonalEdgeStyle;rounded=0;orthogonalLoop=1;jettySize=auto;html=1;exitX=1;exitY=0.5;exitDx=0;exitDy=0;exitPerimeter=0;entryX=0;entryY=0.5;entryDx=0;entryDy=0;" parent="1" source="3dwhWuTvUrP5A4k3dfD7-39" target="3dwhWuTvUrP5A4k3dfD7-50" edge="1">
          <mxGeometry relative="1" as="geometry" />
        </mxCell>
        <mxCell id="3dwhWuTvUrP5A4k3dfD7-39" value="手机号一键登录页&lt;br&gt;&lt;i&gt;ViewCurrentPhonePage&lt;/i&gt;" style="strokeWidth=2;html=1;shape=mxgraph.flowchart.terminator;whiteSpace=wrap;fillColor=none;strokeColor=#CC99FF;" parent="1" vertex="1">
          <mxGeometry x="-40" y="1000" width="160" height="40" as="geometry" />
        </mxCell>
        <mxCell id="3dwhWuTvUrP5A4k3dfD7-43" value="成功" style="edgeStyle=orthogonalEdgeStyle;rounded=0;orthogonalLoop=1;jettySize=auto;html=1;exitX=1;exitY=0.5;exitDx=0;exitDy=0;entryX=0;entryY=0.5;entryDx=0;entryDy=0;" parent="1" source="3dwhWuTvUrP5A4k3dfD7-40" target="3dwhWuTvUrP5A4k3dfD7-44" edge="1">
          <mxGeometry x="0.25" relative="1" as="geometry">
            <mxPoint x="400" y="900" as="targetPoint" />
            <Array as="points">
              <mxPoint x="380" y="900" />
              <mxPoint x="380" y="820" />
            </Array>
            <mxPoint as="offset" />
          </mxGeometry>
        </mxCell>
        <mxCell id="3dwhWuTvUrP5A4k3dfD7-40" value="手机号运营商取号&lt;br&gt;&lt;i&gt;ClickCurrentPhoneLoginButton&lt;/i&gt;" style="rounded=1;whiteSpace=wrap;html=1;absoluteArcSize=1;arcSize=14;strokeWidth=2;fillColor=none;" parent="1" vertex="1">
          <mxGeometry x="200" y="880" width="160" height="40" as="geometry" />
        </mxCell>
        <mxCell id="3dwhWuTvUrP5A4k3dfD7-71" value="成功" style="edgeStyle=orthogonalEdgeStyle;rounded=0;orthogonalLoop=1;jettySize=auto;html=1;exitX=1;exitY=0.5;exitDx=0;exitDy=0;entryX=0;entryY=0.5;entryDx=0;entryDy=0;entryPerimeter=0;" parent="1" source="3dwhWuTvUrP5A4k3dfD7-44" target="3dwhWuTvUrP5A4k3dfD7-72" edge="1">
          <mxGeometry x="0.625" relative="1" as="geometry">
            <mxPoint x="680" y="740" as="targetPoint" />
            <Array as="points">
              <mxPoint x="620" y="820" />
              <mxPoint x="620" y="580" />
            </Array>
            <mxPoint as="offset" />
          </mxGeometry>
        </mxCell>
        <mxCell id="3dwhWuTvUrP5A4k3dfD7-81" value="开通设备锁&amp;amp;未设置密码" style="edgeStyle=orthogonalEdgeStyle;rounded=0;orthogonalLoop=1;jettySize=auto;html=1;exitX=1;exitY=0.5;exitDx=0;exitDy=0;entryX=0;entryY=0.5;entryDx=0;entryDy=0;" parent="1" source="3dwhWuTvUrP5A4k3dfD7-44" target="3dwhWuTvUrP5A4k3dfD7-80" edge="1">
          <mxGeometry x="0.5" y="-30" relative="1" as="geometry">
            <Array as="points">
              <mxPoint x="620" y="820" />
              <mxPoint x="620" y="660" />
            </Array>
            <mxPoint x="-30" y="-30" as="offset" />
          </mxGeometry>
        </mxCell>
        <mxCell id="3dwhWuTvUrP5A4k3dfD7-44" value="手机号取号登录" style="rounded=1;whiteSpace=wrap;html=1;absoluteArcSize=1;arcSize=14;strokeWidth=2;fillColor=none;" parent="1" vertex="1">
          <mxGeometry x="440" y="800" width="160" height="40" as="geometry" />
        </mxCell>
        <mxCell id="3dwhWuTvUrP5A4k3dfD7-54" style="edgeStyle=orthogonalEdgeStyle;rounded=0;orthogonalLoop=1;jettySize=auto;html=1;exitX=1;exitY=0.5;exitDx=0;exitDy=0;" parent="1" source="3dwhWuTvUrP5A4k3dfD7-47" target="3dwhWuTvUrP5A4k3dfD7-53" edge="1">
          <mxGeometry relative="1" as="geometry" />
        </mxCell>
        <mxCell id="3dwhWuTvUrP5A4k3dfD7-47" value="其他方式登录&lt;br&gt;&lt;i&gt;ClickCurrentPasswordLoginButton&lt;/i&gt;" style="rounded=1;whiteSpace=wrap;html=1;absoluteArcSize=1;arcSize=14;strokeWidth=2;fillColor=none;" parent="1" vertex="1">
          <mxGeometry x="200" y="1040" width="160" height="40" as="geometry" />
        </mxCell>
        <mxCell id="3dwhWuTvUrP5A4k3dfD7-103" style="edgeStyle=orthogonalEdgeStyle;rounded=0;orthogonalLoop=1;jettySize=auto;html=1;exitX=1;exitY=0.5;exitDx=0;exitDy=0;entryX=0;entryY=0.5;entryDx=0;entryDy=0;" parent="1" source="3dwhWuTvUrP5A4k3dfD7-49" target="3dwhWuTvUrP5A4k3dfD7-101" edge="1">
          <mxGeometry relative="1" as="geometry">
            <Array as="points">
              <mxPoint x="640" y="980" />
              <mxPoint x="640" y="900" />
            </Array>
          </mxGeometry>
        </mxCell>
        <mxCell id="3dwhWuTvUrP5A4k3dfD7-49" value="切换号码&lt;br&gt;&lt;i&gt;ClickChangePhoneNumberButton&lt;/i&gt;" style="rounded=1;whiteSpace=wrap;html=1;absoluteArcSize=1;arcSize=14;strokeWidth=2;fillColor=none;" parent="1" vertex="1">
          <mxGeometry x="200" y="960" width="160" height="40" as="geometry" />
        </mxCell>
        <mxCell id="3dwhWuTvUrP5A4k3dfD7-62" style="edgeStyle=orthogonalEdgeStyle;rounded=0;orthogonalLoop=1;jettySize=auto;html=1;" parent="1" source="3dwhWuTvUrP5A4k3dfD7-50" target="3dwhWuTvUrP5A4k3dfD7-61" edge="1">
          <mxGeometry relative="1" as="geometry" />
        </mxCell>
        <mxCell id="3dwhWuTvUrP5A4k3dfD7-50" value="返回&lt;br&gt;&lt;i&gt;ClickCurrentPhoneCloseButton&lt;/i&gt;" style="rounded=1;whiteSpace=wrap;html=1;absoluteArcSize=1;arcSize=14;strokeWidth=2;fillColor=none;" parent="1" vertex="1">
          <mxGeometry x="200" y="1200" width="160" height="40" as="geometry" />
        </mxCell>
        <mxCell id="3dwhWuTvUrP5A4k3dfD7-53" value="牛牛帐号密码登录页" style="shape=process;whiteSpace=wrap;html=1;backgroundOutline=1;fillColor=none;fontStyle=1" parent="1" vertex="1">
          <mxGeometry x="440" y="1040" width="160" height="40" as="geometry" />
        </mxCell>
        <mxCell id="3dwhWuTvUrP5A4k3dfD7-61" value="游客登录&lt;br&gt;进入首页" style="strokeWidth=2;html=1;shape=mxgraph.flowchart.terminator;whiteSpace=wrap;fillColor=none;strokeColor=#CC99FF;" parent="1" vertex="1">
          <mxGeometry x="440" y="1200" width="160" height="40" as="geometry" />
        </mxCell>
        <mxCell id="3dwhWuTvUrP5A4k3dfD7-63" value="同意条款复选框&lt;br&gt;&lt;i&gt;AuthorCheckboxStatus&lt;/i&gt;" style="rounded=1;whiteSpace=wrap;html=1;absoluteArcSize=1;arcSize=14;strokeWidth=2;fillColor=none;" parent="1" vertex="1">
          <mxGeometry x="200" y="1280" width="160" height="40" as="geometry" />
        </mxCell>
        <mxCell id="3dwhWuTvUrP5A4k3dfD7-64" style="edgeStyle=orthogonalEdgeStyle;rounded=0;orthogonalLoop=1;jettySize=auto;html=1;exitX=1;exitY=0.5;exitDx=0;exitDy=0;exitPerimeter=0;entryX=0;entryY=0.5;entryDx=0;entryDy=0;" parent="1" source="3dwhWuTvUrP5A4k3dfD7-39" target="3dwhWuTvUrP5A4k3dfD7-63" edge="1">
          <mxGeometry relative="1" as="geometry" />
        </mxCell>
        <mxCell id="3dwhWuTvUrP5A4k3dfD7-68" style="edgeStyle=orthogonalEdgeStyle;rounded=0;orthogonalLoop=1;jettySize=auto;html=1;exitX=1;exitY=0.5;exitDx=0;exitDy=0;" parent="1" source="3dwhWuTvUrP5A4k3dfD7-65" target="3dwhWuTvUrP5A4k3dfD7-175" edge="1">
          <mxGeometry relative="1" as="geometry">
            <mxPoint x="440" y="1140" as="targetPoint" />
          </mxGeometry>
        </mxCell>
        <mxCell id="3dwhWuTvUrP5A4k3dfD7-65" value="条款高亮文本" style="rounded=1;whiteSpace=wrap;html=1;absoluteArcSize=1;arcSize=14;strokeWidth=2;fillColor=none;" parent="1" vertex="1">
          <mxGeometry x="200" y="1120" width="160" height="40" as="geometry" />
        </mxCell>
        <mxCell id="3dwhWuTvUrP5A4k3dfD7-66" style="edgeStyle=orthogonalEdgeStyle;rounded=0;orthogonalLoop=1;jettySize=auto;html=1;exitX=1;exitY=0.5;exitDx=0;exitDy=0;exitPerimeter=0;entryX=0;entryY=0.5;entryDx=0;entryDy=0;" parent="1" source="3dwhWuTvUrP5A4k3dfD7-39" target="3dwhWuTvUrP5A4k3dfD7-65" edge="1">
          <mxGeometry relative="1" as="geometry" />
        </mxCell>
        <mxCell id="3dwhWuTvUrP5A4k3dfD7-69" value="&lt;font color=&quot;#999999&quot;&gt;移动SDK内置H5页面，不使用URLID&lt;/font&gt;" style="text;html=1;strokeColor=none;fillColor=none;align=center;verticalAlign=middle;whiteSpace=wrap;rounded=0;fontStyle=2" parent="1" vertex="1">
          <mxGeometry x="420" y="1160" width="200" height="20" as="geometry" />
        </mxCell>
        <mxCell id="3dwhWuTvUrP5A4k3dfD7-75" value="Y" style="edgeStyle=orthogonalEdgeStyle;rounded=0;orthogonalLoop=1;jettySize=auto;html=1;exitX=0.5;exitY=0;exitDx=0;exitDy=0;exitPerimeter=0;" parent="1" source="3dwhWuTvUrP5A4k3dfD7-72" target="3dwhWuTvUrP5A4k3dfD7-73" edge="1">
          <mxGeometry relative="1" as="geometry" />
        </mxCell>
        <mxCell id="3dwhWuTvUrP5A4k3dfD7-76" value="N" style="edgeStyle=orthogonalEdgeStyle;rounded=0;orthogonalLoop=1;jettySize=auto;html=1;exitX=1;exitY=0.5;exitDx=0;exitDy=0;exitPerimeter=0;" parent="1" source="3dwhWuTvUrP5A4k3dfD7-72" target="3dwhWuTvUrP5A4k3dfD7-74" edge="1">
          <mxGeometry relative="1" as="geometry" />
        </mxCell>
        <mxCell id="3dwhWuTvUrP5A4k3dfD7-72" value="新用户" style="strokeWidth=2;html=1;shape=mxgraph.flowchart.decision;whiteSpace=wrap;fillColor=none;" parent="1" vertex="1">
          <mxGeometry x="680" y="560" width="160" height="40" as="geometry" />
        </mxCell>
        <mxCell id="3dwhWuTvUrP5A4k3dfD7-78" style="edgeStyle=orthogonalEdgeStyle;rounded=0;orthogonalLoop=1;jettySize=auto;html=1;exitX=1;exitY=0.5;exitDx=0;exitDy=0;" parent="1" source="3dwhWuTvUrP5A4k3dfD7-73" target="3dwhWuTvUrP5A4k3dfD7-77" edge="1">
          <mxGeometry relative="1" as="geometry" />
        </mxCell>
        <mxCell id="3dwhWuTvUrP5A4k3dfD7-73" value="&lt;i&gt;Register&lt;/i&gt;" style="rounded=1;whiteSpace=wrap;html=1;absoluteArcSize=1;arcSize=14;strokeWidth=2;fillColor=none;" parent="1" vertex="1">
          <mxGeometry x="680" y="480" width="160" height="40" as="geometry" />
        </mxCell>
        <mxCell id="3dwhWuTvUrP5A4k3dfD7-79" style="edgeStyle=orthogonalEdgeStyle;rounded=0;orthogonalLoop=1;jettySize=auto;html=1;exitX=0.5;exitY=0;exitDx=0;exitDy=0;" parent="1" source="3dwhWuTvUrP5A4k3dfD7-74" target="3dwhWuTvUrP5A4k3dfD7-77" edge="1">
          <mxGeometry relative="1" as="geometry" />
        </mxCell>
        <mxCell id="3dwhWuTvUrP5A4k3dfD7-74" value="&lt;i&gt;Login&lt;/i&gt;" style="rounded=1;whiteSpace=wrap;html=1;absoluteArcSize=1;arcSize=14;strokeWidth=2;fillColor=none;" parent="1" vertex="1">
          <mxGeometry x="920" y="560" width="160" height="40" as="geometry" />
        </mxCell>
        <mxCell id="3dwhWuTvUrP5A4k3dfD7-77" value="进入首页" style="strokeWidth=2;html=1;shape=mxgraph.flowchart.terminator;whiteSpace=wrap;fillColor=none;strokeColor=#CC99FF;" parent="1" vertex="1">
          <mxGeometry x="920" y="480" width="160" height="40" as="geometry" />
        </mxCell>
        <mxCell id="3dwhWuTvUrP5A4k3dfD7-83" style="edgeStyle=orthogonalEdgeStyle;rounded=0;orthogonalLoop=1;jettySize=auto;html=1;exitX=1;exitY=0.5;exitDx=0;exitDy=0;" parent="1" source="3dwhWuTvUrP5A4k3dfD7-80" target="3dwhWuTvUrP5A4k3dfD7-82" edge="1">
          <mxGeometry relative="1" as="geometry" />
        </mxCell>
        <mxCell id="3dwhWuTvUrP5A4k3dfD7-80" value="弹出失败提示&lt;br&gt;&lt;i&gt;ViewCurrentPhoneFieldToast&lt;/i&gt;" style="rounded=1;whiteSpace=wrap;html=1;absoluteArcSize=1;arcSize=14;strokeWidth=2;fillColor=none;" parent="1" vertex="1">
          <mxGeometry x="680" y="640" width="160" height="40" as="geometry" />
        </mxCell>
        <mxCell id="3dwhWuTvUrP5A4k3dfD7-82" value="牛牛帐号密码登录页" style="shape=process;whiteSpace=wrap;html=1;backgroundOutline=1;fillColor=none;fontStyle=1" parent="1" vertex="1">
          <mxGeometry x="920" y="640" width="160" height="40" as="geometry" />
        </mxCell>
        <mxCell id="3dwhWuTvUrP5A4k3dfD7-92" value="验证登录密码页" style="shape=process;whiteSpace=wrap;html=1;backgroundOutline=1;fillColor=none;fontStyle=1" parent="1" vertex="1">
          <mxGeometry x="920" y="720" width="160" height="40" as="geometry" />
        </mxCell>
        <mxCell id="3dwhWuTvUrP5A4k3dfD7-95" value="弹出Toast提示" style="rounded=1;whiteSpace=wrap;html=1;absoluteArcSize=1;arcSize=14;strokeWidth=2;fillColor=none;" parent="1" vertex="1">
          <mxGeometry x="920" y="800" width="160" height="40" as="geometry" />
        </mxCell>
        <mxCell id="3dwhWuTvUrP5A4k3dfD7-98" value="失败" style="edgeStyle=orthogonalEdgeStyle;rounded=0;orthogonalLoop=1;jettySize=auto;html=1;exitX=1;exitY=0.5;exitDx=0;exitDy=0;" parent="1" source="3dwhWuTvUrP5A4k3dfD7-40" target="3dwhWuTvUrP5A4k3dfD7-99" edge="1">
          <mxGeometry relative="1" as="geometry">
            <mxPoint x="440" y="900" as="targetPoint" />
            <Array as="points" />
          </mxGeometry>
        </mxCell>
        <mxCell id="3dwhWuTvUrP5A4k3dfD7-102" style="edgeStyle=orthogonalEdgeStyle;rounded=0;orthogonalLoop=1;jettySize=auto;html=1;exitX=1;exitY=0.5;exitDx=0;exitDy=0;" parent="1" source="3dwhWuTvUrP5A4k3dfD7-99" target="3dwhWuTvUrP5A4k3dfD7-101" edge="1">
          <mxGeometry relative="1" as="geometry" />
        </mxCell>
        <mxCell id="3dwhWuTvUrP5A4k3dfD7-99" value="弹出失败提示&lt;br&gt;&lt;i&gt;ViewCurrentPhoneFieldToast&lt;/i&gt;" style="rounded=1;whiteSpace=wrap;html=1;absoluteArcSize=1;arcSize=14;strokeWidth=2;fillColor=none;" parent="1" vertex="1">
          <mxGeometry x="440" y="880" width="160" height="40" as="geometry" />
        </mxCell>
        <mxCell id="3dwhWuTvUrP5A4k3dfD7-101" value="手机号短信验证码登录页" style="shape=process;whiteSpace=wrap;html=1;backgroundOutline=1;fillColor=none;fontStyle=1" parent="1" vertex="1">
          <mxGeometry x="680" y="880" width="160" height="40" as="geometry" />
        </mxCell>
        <mxCell id="3dwhWuTvUrP5A4k3dfD7-106" style="edgeStyle=orthogonalEdgeStyle;rounded=0;orthogonalLoop=1;jettySize=auto;html=1;exitX=1;exitY=0.5;exitDx=0;exitDy=0;exitPerimeter=0;" parent="1" source="3dwhWuTvUrP5A4k3dfD7-104" target="3dwhWuTvUrP5A4k3dfD7-105" edge="1">
          <mxGeometry relative="1" as="geometry">
            <Array as="points">
              <mxPoint x="160" y="2020" />
              <mxPoint x="160" y="2580" />
            </Array>
          </mxGeometry>
        </mxCell>
        <mxCell id="3dwhWuTvUrP5A4k3dfD7-108" style="edgeStyle=orthogonalEdgeStyle;rounded=0;orthogonalLoop=1;jettySize=auto;html=1;exitX=1;exitY=0.5;exitDx=0;exitDy=0;exitPerimeter=0;entryX=0;entryY=0.5;entryDx=0;entryDy=0;" parent="1" source="3dwhWuTvUrP5A4k3dfD7-104" target="3dwhWuTvUrP5A4k3dfD7-107" edge="1">
          <mxGeometry relative="1" as="geometry" />
        </mxCell>
        <mxCell id="3dwhWuTvUrP5A4k3dfD7-112" style="edgeStyle=orthogonalEdgeStyle;rounded=0;orthogonalLoop=1;jettySize=auto;html=1;entryX=0;entryY=0.5;entryDx=0;entryDy=0;" parent="1" source="3dwhWuTvUrP5A4k3dfD7-104" target="3dwhWuTvUrP5A4k3dfD7-111" edge="1">
          <mxGeometry relative="1" as="geometry">
            <mxPoint x="120" y="2100" as="sourcePoint" />
            <Array as="points">
              <mxPoint x="160" y="2020" />
              <mxPoint x="160" y="1620" />
            </Array>
          </mxGeometry>
        </mxCell>
        <mxCell id="3dwhWuTvUrP5A4k3dfD7-125" style="edgeStyle=orthogonalEdgeStyle;rounded=0;orthogonalLoop=1;jettySize=auto;html=1;exitX=1;exitY=0.5;exitDx=0;exitDy=0;exitPerimeter=0;entryX=0;entryY=0.5;entryDx=0;entryDy=0;" parent="1" source="3dwhWuTvUrP5A4k3dfD7-104" target="3dwhWuTvUrP5A4k3dfD7-124" edge="1">
          <mxGeometry relative="1" as="geometry" />
        </mxCell>
        <mxCell id="3dwhWuTvUrP5A4k3dfD7-132" style="edgeStyle=orthogonalEdgeStyle;rounded=0;orthogonalLoop=1;jettySize=auto;html=1;exitX=1;exitY=0.5;exitDx=0;exitDy=0;exitPerimeter=0;" parent="1" source="3dwhWuTvUrP5A4k3dfD7-104" target="3dwhWuTvUrP5A4k3dfD7-131" edge="1">
          <mxGeometry relative="1" as="geometry">
            <mxPoint x="120" y="2100" as="sourcePoint" />
            <Array as="points">
              <mxPoint x="160" y="2020" />
              <mxPoint x="160" y="1780" />
            </Array>
          </mxGeometry>
        </mxCell>
        <mxCell id="3dwhWuTvUrP5A4k3dfD7-134" style="edgeStyle=orthogonalEdgeStyle;rounded=0;orthogonalLoop=1;jettySize=auto;html=1;entryX=0;entryY=0.5;entryDx=0;entryDy=0;" parent="1" source="3dwhWuTvUrP5A4k3dfD7-104" target="3dwhWuTvUrP5A4k3dfD7-133" edge="1">
          <mxGeometry relative="1" as="geometry">
            <mxPoint x="120" y="2100" as="sourcePoint" />
          </mxGeometry>
        </mxCell>
        <mxCell id="3dwhWuTvUrP5A4k3dfD7-161" style="edgeStyle=orthogonalEdgeStyle;rounded=0;orthogonalLoop=1;jettySize=auto;html=1;exitX=1;exitY=0.5;exitDx=0;exitDy=0;exitPerimeter=0;entryX=0;entryY=0.5;entryDx=0;entryDy=0;" parent="1" source="3dwhWuTvUrP5A4k3dfD7-104" target="3dwhWuTvUrP5A4k3dfD7-150" edge="1">
          <mxGeometry relative="1" as="geometry" />
        </mxCell>
        <mxCell id="3dwhWuTvUrP5A4k3dfD7-104" value="手机号短信登录页&lt;br&gt;&lt;i&gt;ViewVerificationCodePage&lt;/i&gt;" style="strokeWidth=2;html=1;shape=mxgraph.flowchart.terminator;whiteSpace=wrap;fillColor=none;strokeColor=#CC99FF;" parent="1" vertex="1">
          <mxGeometry x="-40" y="2000" width="160" height="40" as="geometry" />
        </mxCell>
        <mxCell id="3dwhWuTvUrP5A4k3dfD7-128" style="edgeStyle=orthogonalEdgeStyle;rounded=0;orthogonalLoop=1;jettySize=auto;html=1;exitX=1;exitY=0.5;exitDx=0;exitDy=0;" parent="1" source="3dwhWuTvUrP5A4k3dfD7-105" target="3dwhWuTvUrP5A4k3dfD7-127" edge="1">
          <mxGeometry relative="1" as="geometry" />
        </mxCell>
        <mxCell id="3dwhWuTvUrP5A4k3dfD7-105" value="选择手机区号" style="rounded=1;whiteSpace=wrap;html=1;absoluteArcSize=1;arcSize=14;strokeWidth=2;fillColor=none;" parent="1" vertex="1">
          <mxGeometry x="200" y="2560" width="160" height="40" as="geometry" />
        </mxCell>
        <mxCell id="3dwhWuTvUrP5A4k3dfD7-110" style="edgeStyle=orthogonalEdgeStyle;rounded=0;orthogonalLoop=1;jettySize=auto;html=1;exitX=1;exitY=0.5;exitDx=0;exitDy=0;" parent="1" source="3dwhWuTvUrP5A4k3dfD7-107" target="3dwhWuTvUrP5A4k3dfD7-109" edge="1">
          <mxGeometry relative="1" as="geometry" />
        </mxCell>
        <mxCell id="3dwhWuTvUrP5A4k3dfD7-107" value="返回&lt;br&gt;&lt;i&gt;ClickCodeCloseButton&lt;/i&gt;" style="rounded=1;whiteSpace=wrap;html=1;absoluteArcSize=1;arcSize=14;strokeWidth=2;fillColor=none;" parent="1" vertex="1">
          <mxGeometry x="200" y="2720" width="160" height="40" as="geometry" />
        </mxCell>
        <mxCell id="3dwhWuTvUrP5A4k3dfD7-109" value="游客登录&lt;br&gt;进入首页" style="strokeWidth=2;html=1;shape=mxgraph.flowchart.terminator;whiteSpace=wrap;fillColor=none;strokeColor=#CC99FF;" parent="1" vertex="1">
          <mxGeometry x="440" y="2720" width="160" height="40" as="geometry" />
        </mxCell>
        <mxCell id="3dwhWuTvUrP5A4k3dfD7-118" style="edgeStyle=orthogonalEdgeStyle;rounded=0;orthogonalLoop=1;jettySize=auto;html=1;exitX=1;exitY=0.5;exitDx=0;exitDy=0;entryX=0;entryY=0.5;entryDx=0;entryDy=0;" parent="1" source="3dwhWuTvUrP5A4k3dfD7-111" target="3dwhWuTvUrP5A4k3dfD7-115" edge="1">
          <mxGeometry relative="1" as="geometry">
            <Array as="points">
              <mxPoint x="380" y="1620" />
              <mxPoint x="380" y="1460" />
              <mxPoint x="400" y="1460" />
              <mxPoint x="400" y="1620" />
            </Array>
          </mxGeometry>
        </mxCell>
        <mxCell id="3dwhWuTvUrP5A4k3dfD7-111" value="获取语音验证码" style="rounded=1;whiteSpace=wrap;html=1;absoluteArcSize=1;arcSize=14;strokeWidth=2;fillColor=none;" parent="1" vertex="1">
          <mxGeometry x="200" y="1600" width="160" height="40" as="geometry" />
        </mxCell>
        <mxCell id="3dwhWuTvUrP5A4k3dfD7-119" value="成功" style="edgeStyle=orthogonalEdgeStyle;rounded=0;orthogonalLoop=1;jettySize=auto;html=1;exitX=1;exitY=0.5;exitDx=0;exitDy=0;entryX=0;entryY=0.5;entryDx=0;entryDy=0;" parent="1" source="3dwhWuTvUrP5A4k3dfD7-113" target="3dwhWuTvUrP5A4k3dfD7-115" edge="1">
          <mxGeometry x="0.875" y="10" relative="1" as="geometry">
            <Array as="points">
              <mxPoint x="380" y="1540" />
              <mxPoint x="380" y="1460" />
              <mxPoint x="400" y="1460" />
              <mxPoint x="400" y="1620" />
            </Array>
            <mxPoint as="offset" />
          </mxGeometry>
        </mxCell>
        <mxCell id="3dwhWuTvUrP5A4k3dfD7-113" value="获取短信验证码&lt;br&gt;&lt;i&gt;ClickGetVerificationCodeButton&lt;/i&gt;" style="rounded=1;whiteSpace=wrap;html=1;absoluteArcSize=1;arcSize=14;strokeWidth=2;fillColor=none;" parent="1" vertex="1">
          <mxGeometry x="200" y="1520" width="160" height="40" as="geometry" />
        </mxCell>
        <mxCell id="3dwhWuTvUrP5A4k3dfD7-114" style="edgeStyle=orthogonalEdgeStyle;rounded=0;orthogonalLoop=1;jettySize=auto;html=1;entryX=0;entryY=0.5;entryDx=0;entryDy=0;" parent="1" source="3dwhWuTvUrP5A4k3dfD7-104" target="3dwhWuTvUrP5A4k3dfD7-113" edge="1">
          <mxGeometry relative="1" as="geometry">
            <mxPoint x="120" y="2100" as="sourcePoint" />
          </mxGeometry>
        </mxCell>
        <mxCell id="3dwhWuTvUrP5A4k3dfD7-115" value="开始倒计时" style="rounded=1;whiteSpace=wrap;html=1;absoluteArcSize=1;arcSize=14;strokeWidth=2;fillColor=none;" parent="1" vertex="1">
          <mxGeometry x="440" y="1600" width="160" height="40" as="geometry" />
        </mxCell>
        <mxCell id="3dwhWuTvUrP5A4k3dfD7-123" style="edgeStyle=orthogonalEdgeStyle;rounded=0;orthogonalLoop=1;jettySize=auto;html=1;exitX=1;exitY=0.5;exitDx=0;exitDy=0;" parent="1" source="3dwhWuTvUrP5A4k3dfD7-116" target="3dwhWuTvUrP5A4k3dfD7-122" edge="1">
          <mxGeometry relative="1" as="geometry" />
        </mxCell>
        <mxCell id="3dwhWuTvUrP5A4k3dfD7-116" value="弹出防水墙" style="rounded=1;whiteSpace=wrap;html=1;absoluteArcSize=1;arcSize=14;strokeWidth=2;fillColor=none;" parent="1" vertex="1">
          <mxGeometry x="440" y="1440" width="160" height="40" as="geometry" />
        </mxCell>
        <mxCell id="3dwhWuTvUrP5A4k3dfD7-117" value="Toast提示" style="rounded=1;whiteSpace=wrap;html=1;absoluteArcSize=1;arcSize=14;strokeWidth=2;fillColor=none;" parent="1" vertex="1">
          <mxGeometry x="440" y="1520" width="160" height="40" as="geometry" />
        </mxCell>
        <mxCell id="3dwhWuTvUrP5A4k3dfD7-121" value="失败" style="edgeStyle=orthogonalEdgeStyle;rounded=0;orthogonalLoop=1;jettySize=auto;html=1;exitX=1;exitY=0.5;exitDx=0;exitDy=0;entryX=0;entryY=0.5;entryDx=0;entryDy=0;" parent="1" source="3dwhWuTvUrP5A4k3dfD7-113" target="3dwhWuTvUrP5A4k3dfD7-117" edge="1">
          <mxGeometry x="0.8333" y="10" relative="1" as="geometry">
            <mxPoint x="440" y="1540" as="targetPoint" />
            <Array as="points">
              <mxPoint x="380" y="1540" />
              <mxPoint x="380" y="1460" />
              <mxPoint x="400" y="1460" />
              <mxPoint x="400" y="1540" />
            </Array>
            <mxPoint as="offset" />
          </mxGeometry>
        </mxCell>
        <mxCell id="3dwhWuTvUrP5A4k3dfD7-122" value="再次请求验证码" style="rounded=1;whiteSpace=wrap;html=1;absoluteArcSize=1;arcSize=14;strokeWidth=2;fillColor=none;" parent="1" vertex="1">
          <mxGeometry x="680" y="1440" width="160" height="40" as="geometry" />
        </mxCell>
        <mxCell id="3dwhWuTvUrP5A4k3dfD7-129" style="edgeStyle=orthogonalEdgeStyle;rounded=0;orthogonalLoop=1;jettySize=auto;html=1;exitX=1;exitY=0.5;exitDx=0;exitDy=0;" parent="1" source="3dwhWuTvUrP5A4k3dfD7-124" target="3dwhWuTvUrP5A4k3dfD7-141" edge="1">
          <mxGeometry relative="1" as="geometry">
            <mxPoint x="440" y="2500" as="targetPoint" />
          </mxGeometry>
        </mxCell>
        <mxCell id="3dwhWuTvUrP5A4k3dfD7-124" value="手机号密码登录&lt;br&gt;&lt;i&gt;ClickCodeToPasswordLoginButton&lt;/i&gt;" style="rounded=1;whiteSpace=wrap;html=1;absoluteArcSize=1;arcSize=14;strokeWidth=2;fillColor=none;" parent="1" vertex="1">
          <mxGeometry x="200" y="2480" width="160" height="40" as="geometry" />
        </mxCell>
        <mxCell id="3dwhWuTvUrP5A4k3dfD7-127" value="选择国家区号界面" style="shape=process;whiteSpace=wrap;html=1;backgroundOutline=1;fillColor=none;fontStyle=1" parent="1" vertex="1">
          <mxGeometry x="440" y="2560" width="160" height="40" as="geometry" />
        </mxCell>
        <mxCell id="3dwhWuTvUrP5A4k3dfD7-178" style="edgeStyle=orthogonalEdgeStyle;rounded=0;orthogonalLoop=1;jettySize=auto;html=1;exitX=1;exitY=0.5;exitDx=0;exitDy=0;" parent="1" source="3dwhWuTvUrP5A4k3dfD7-131" target="3dwhWuTvUrP5A4k3dfD7-179" edge="1">
          <mxGeometry relative="1" as="geometry">
            <mxPoint x="440" y="1780" as="targetPoint" />
          </mxGeometry>
        </mxCell>
        <mxCell id="3dwhWuTvUrP5A4k3dfD7-194" value="需要验证登录密码" style="edgeStyle=orthogonalEdgeStyle;rounded=0;orthogonalLoop=1;jettySize=auto;html=1;exitX=1;exitY=0.5;exitDx=0;exitDy=0;entryX=0;entryY=0.5;entryDx=0;entryDy=0;" parent="1" source="3dwhWuTvUrP5A4k3dfD7-131" target="3dwhWuTvUrP5A4k3dfD7-193" edge="1">
          <mxGeometry x="0.2" relative="1" as="geometry">
            <Array as="points">
              <mxPoint x="400" y="1780" />
              <mxPoint x="400" y="1860" />
            </Array>
            <mxPoint as="offset" />
          </mxGeometry>
        </mxCell>
        <mxCell id="3dwhWuTvUrP5A4k3dfD7-199" style="edgeStyle=orthogonalEdgeStyle;rounded=0;orthogonalLoop=1;jettySize=auto;html=1;exitX=1;exitY=0.5;exitDx=0;exitDy=0;entryX=0;entryY=0.5;entryDx=0;entryDy=0;" parent="1" source="3dwhWuTvUrP5A4k3dfD7-131" target="3dwhWuTvUrP5A4k3dfD7-197" edge="1">
          <mxGeometry relative="1" as="geometry">
            <Array as="points">
              <mxPoint x="400" y="1780" />
              <mxPoint x="400" y="1940" />
            </Array>
          </mxGeometry>
        </mxCell>
        <mxCell id="3dwhWuTvUrP5A4k3dfD7-202" style="edgeStyle=orthogonalEdgeStyle;rounded=0;orthogonalLoop=1;jettySize=auto;html=1;exitX=1;exitY=0.5;exitDx=0;exitDy=0;entryX=0;entryY=0.5;entryDx=0;entryDy=0;" parent="1" source="3dwhWuTvUrP5A4k3dfD7-131" target="3dwhWuTvUrP5A4k3dfD7-201" edge="1">
          <mxGeometry relative="1" as="geometry">
            <Array as="points">
              <mxPoint x="400" y="1780" />
              <mxPoint x="400" y="2020" />
            </Array>
          </mxGeometry>
        </mxCell>
        <mxCell id="3dwhWuTvUrP5A4k3dfD7-203" value="需要短信验证" style="edgeLabel;html=1;align=center;verticalAlign=middle;resizable=0;points=[];" parent="3dwhWuTvUrP5A4k3dfD7-202" vertex="1" connectable="0">
          <mxGeometry x="0.4163" y="-2" relative="1" as="geometry">
            <mxPoint x="3.43" y="-2.02" as="offset" />
          </mxGeometry>
        </mxCell>
        <mxCell id="3dwhWuTvUrP5A4k3dfD7-205" style="edgeStyle=orthogonalEdgeStyle;rounded=0;orthogonalLoop=1;jettySize=auto;html=1;exitX=1;exitY=0.5;exitDx=0;exitDy=0;entryX=0;entryY=0.5;entryDx=0;entryDy=0;" parent="1" source="3dwhWuTvUrP5A4k3dfD7-131" target="3dwhWuTvUrP5A4k3dfD7-204" edge="1">
          <mxGeometry relative="1" as="geometry">
            <Array as="points">
              <mxPoint x="400" y="1780" />
              <mxPoint x="400" y="2100" />
            </Array>
          </mxGeometry>
        </mxCell>
        <mxCell id="3dwhWuTvUrP5A4k3dfD7-206" value="其他失败" style="edgeLabel;html=1;align=center;verticalAlign=middle;resizable=0;points=[];" parent="3dwhWuTvUrP5A4k3dfD7-205" vertex="1" connectable="0">
          <mxGeometry x="0.5344" y="-3" relative="1" as="geometry">
            <mxPoint x="-11" y="-3" as="offset" />
          </mxGeometry>
        </mxCell>
        <mxCell id="3dwhWuTvUrP5A4k3dfD7-131" value="使用验证码登录&lt;br&gt;&lt;i&gt;ClickCodeLoginButton&lt;/i&gt;" style="rounded=1;whiteSpace=wrap;html=1;absoluteArcSize=1;arcSize=14;strokeWidth=2;fillColor=none;" parent="1" vertex="1">
          <mxGeometry x="200" y="1760" width="160" height="40" as="geometry" />
        </mxCell>
        <mxCell id="3dwhWuTvUrP5A4k3dfD7-195" style="edgeStyle=orthogonalEdgeStyle;rounded=0;orthogonalLoop=1;jettySize=auto;html=1;exitX=1;exitY=0.5;exitDx=0;exitDy=0;entryX=0;entryY=0.5;entryDx=0;entryDy=0;entryPerimeter=0;" parent="1" source="3dwhWuTvUrP5A4k3dfD7-133" target="3dwhWuTvUrP5A4k3dfD7-179" edge="1">
          <mxGeometry relative="1" as="geometry">
            <Array as="points">
              <mxPoint x="380" y="1860" />
              <mxPoint x="380" y="1780" />
            </Array>
          </mxGeometry>
        </mxCell>
        <mxCell id="3dwhWuTvUrP5A4k3dfD7-133" value="三方登录（WX/FB）&lt;br&gt;&lt;i&gt;ClickCodeWeChatOrFBLoginButton&lt;/i&gt;" style="rounded=1;whiteSpace=wrap;html=1;absoluteArcSize=1;arcSize=14;strokeWidth=2;fillColor=none;" parent="1" vertex="1">
          <mxGeometry x="200" y="1840" width="160" height="40" as="geometry" />
        </mxCell>
        <mxCell id="3dwhWuTvUrP5A4k3dfD7-136" value="牛牛帐号密码登录页" style="shape=process;whiteSpace=wrap;html=1;backgroundOutline=1;fillColor=none;fontStyle=1" parent="1" vertex="1">
          <mxGeometry x="440" y="2640" width="160" height="40" as="geometry" />
        </mxCell>
        <mxCell id="3dwhWuTvUrP5A4k3dfD7-140" style="edgeStyle=orthogonalEdgeStyle;rounded=0;orthogonalLoop=1;jettySize=auto;html=1;exitX=1;exitY=0.5;exitDx=0;exitDy=0;" parent="1" source="3dwhWuTvUrP5A4k3dfD7-137" target="3dwhWuTvUrP5A4k3dfD7-136" edge="1">
          <mxGeometry relative="1" as="geometry" />
        </mxCell>
        <mxCell id="3dwhWuTvUrP5A4k3dfD7-137" value="其他方式登录&lt;br&gt;&lt;i&gt;ClickVerCodePasswordLoginButton&lt;/i&gt;" style="rounded=1;whiteSpace=wrap;html=1;absoluteArcSize=1;arcSize=14;strokeWidth=2;fillColor=none;" parent="1" vertex="1">
          <mxGeometry x="200" y="2640" width="160" height="40" as="geometry" />
        </mxCell>
        <mxCell id="3dwhWuTvUrP5A4k3dfD7-139" style="edgeStyle=orthogonalEdgeStyle;rounded=0;orthogonalLoop=1;jettySize=auto;html=1;exitX=1;exitY=0.5;exitDx=0;exitDy=0;exitPerimeter=0;entryX=0;entryY=0.5;entryDx=0;entryDy=0;" parent="1" source="3dwhWuTvUrP5A4k3dfD7-104" target="3dwhWuTvUrP5A4k3dfD7-137" edge="1">
          <mxGeometry relative="1" as="geometry" />
        </mxCell>
        <mxCell id="3dwhWuTvUrP5A4k3dfD7-148" style="edgeStyle=orthogonalEdgeStyle;rounded=0;orthogonalLoop=1;jettySize=auto;html=1;exitX=1;exitY=0.5;exitDx=0;exitDy=0;exitPerimeter=0;entryX=0;entryY=0.5;entryDx=0;entryDy=0;" parent="1" source="3dwhWuTvUrP5A4k3dfD7-104" target="3dwhWuTvUrP5A4k3dfD7-146" edge="1">
          <mxGeometry relative="1" as="geometry">
            <Array as="points">
              <mxPoint x="160" y="2020" />
              <mxPoint x="160" y="2420" />
            </Array>
          </mxGeometry>
        </mxCell>
        <mxCell id="3dwhWuTvUrP5A4k3dfD7-141" value="切换为手机号密码登录" style="rounded=1;whiteSpace=wrap;html=1;absoluteArcSize=1;arcSize=14;strokeWidth=2;fillColor=none;" parent="1" vertex="1">
          <mxGeometry x="440" y="2480" width="160" height="40" as="geometry" />
        </mxCell>
        <mxCell id="3dwhWuTvUrP5A4k3dfD7-196" value="成功" style="edgeStyle=orthogonalEdgeStyle;rounded=0;orthogonalLoop=1;jettySize=auto;html=1;exitX=1;exitY=0.5;exitDx=0;exitDy=0;entryX=0;entryY=0.5;entryDx=0;entryDy=0;entryPerimeter=0;" parent="1" source="3dwhWuTvUrP5A4k3dfD7-142" target="3dwhWuTvUrP5A4k3dfD7-179" edge="1">
          <mxGeometry x="0.8334" y="10" relative="1" as="geometry">
            <Array as="points">
              <mxPoint x="380" y="1940" />
              <mxPoint x="380" y="1780" />
            </Array>
            <mxPoint as="offset" />
          </mxGeometry>
        </mxCell>
        <mxCell id="3dwhWuTvUrP5A4k3dfD7-142" value="手机号密码登录&lt;br&gt;&lt;i&gt;ClickCodeLoginButton&lt;/i&gt;" style="rounded=1;whiteSpace=wrap;html=1;absoluteArcSize=1;arcSize=14;strokeWidth=2;fillColor=none;" parent="1" vertex="1">
          <mxGeometry x="200" y="1920" width="160" height="40" as="geometry" />
        </mxCell>
        <mxCell id="3dwhWuTvUrP5A4k3dfD7-143" style="edgeStyle=orthogonalEdgeStyle;rounded=0;orthogonalLoop=1;jettySize=auto;html=1;entryX=0;entryY=0.5;entryDx=0;entryDy=0;" parent="1" source="3dwhWuTvUrP5A4k3dfD7-104" target="3dwhWuTvUrP5A4k3dfD7-142" edge="1">
          <mxGeometry relative="1" as="geometry">
            <mxPoint x="120" y="2100" as="sourcePoint" />
          </mxGeometry>
        </mxCell>
        <mxCell id="3dwhWuTvUrP5A4k3dfD7-120" value="防水墙" style="edgeStyle=orthogonalEdgeStyle;rounded=0;orthogonalLoop=1;jettySize=auto;html=1;exitX=1;exitY=0.5;exitDx=0;exitDy=0;entryX=0;entryY=0.5;entryDx=0;entryDy=0;" parent="1" source="3dwhWuTvUrP5A4k3dfD7-113" target="3dwhWuTvUrP5A4k3dfD7-116" edge="1">
          <mxGeometry x="0.625" y="10" relative="1" as="geometry">
            <mxPoint x="440" y="1540" as="targetPoint" />
            <Array as="points">
              <mxPoint x="380" y="1540" />
              <mxPoint x="380" y="1460" />
            </Array>
            <mxPoint as="offset" />
          </mxGeometry>
        </mxCell>
        <mxCell id="3dwhWuTvUrP5A4k3dfD7-145" style="edgeStyle=orthogonalEdgeStyle;rounded=0;orthogonalLoop=1;jettySize=auto;html=1;exitX=1;exitY=0.5;exitDx=0;exitDy=0;" parent="1" source="3dwhWuTvUrP5A4k3dfD7-146" target="3dwhWuTvUrP5A4k3dfD7-147" edge="1">
          <mxGeometry relative="1" as="geometry">
            <mxPoint x="440" y="2420" as="targetPoint" />
          </mxGeometry>
        </mxCell>
        <mxCell id="3dwhWuTvUrP5A4k3dfD7-146" value="短信验证码登录&lt;br&gt;&lt;i&gt;ClickPasswordToCodeLoginButton&lt;/i&gt;" style="rounded=1;whiteSpace=wrap;html=1;absoluteArcSize=1;arcSize=14;strokeWidth=2;fillColor=none;" parent="1" vertex="1">
          <mxGeometry x="200" y="2400" width="160" height="40" as="geometry" />
        </mxCell>
        <mxCell id="3dwhWuTvUrP5A4k3dfD7-147" value="切换为手机号短信登录" style="rounded=1;whiteSpace=wrap;html=1;absoluteArcSize=1;arcSize=14;strokeWidth=2;fillColor=none;" parent="1" vertex="1">
          <mxGeometry x="440" y="2400" width="160" height="40" as="geometry" />
        </mxCell>
        <mxCell id="3dwhWuTvUrP5A4k3dfD7-159" style="edgeStyle=orthogonalEdgeStyle;rounded=0;orthogonalLoop=1;jettySize=auto;html=1;exitX=1;exitY=0.5;exitDx=0;exitDy=0;" parent="1" source="3dwhWuTvUrP5A4k3dfD7-149" target="3dwhWuTvUrP5A4k3dfD7-158" edge="1">
          <mxGeometry relative="1" as="geometry" />
        </mxCell>
        <mxCell id="3dwhWuTvUrP5A4k3dfD7-149" value="注册牛牛号" style="rounded=1;whiteSpace=wrap;html=1;absoluteArcSize=1;arcSize=14;strokeWidth=2;fillColor=none;" parent="1" vertex="1">
          <mxGeometry x="200" y="2320" width="160" height="40" as="geometry" />
        </mxCell>
        <mxCell id="3dwhWuTvUrP5A4k3dfD7-157" style="edgeStyle=orthogonalEdgeStyle;rounded=0;orthogonalLoop=1;jettySize=auto;html=1;exitX=1;exitY=0.5;exitDx=0;exitDy=0;" parent="1" source="3dwhWuTvUrP5A4k3dfD7-150" target="3dwhWuTvUrP5A4k3dfD7-154" edge="1">
          <mxGeometry relative="1" as="geometry" />
        </mxCell>
        <mxCell id="3dwhWuTvUrP5A4k3dfD7-150" value="本机号码一键登录&lt;br&gt;&lt;i&gt;ClickLoginWithCurrentPhoneNumberButton&lt;/i&gt;" style="rounded=1;whiteSpace=wrap;html=1;absoluteArcSize=1;arcSize=14;strokeWidth=2;fillColor=none;" parent="1" vertex="1">
          <mxGeometry x="200" y="2240" width="160" height="40" as="geometry" />
        </mxCell>
        <mxCell id="3dwhWuTvUrP5A4k3dfD7-152" value="Y" style="edgeStyle=orthogonalEdgeStyle;rounded=0;orthogonalLoop=1;jettySize=auto;html=1;exitX=0.5;exitY=1;exitDx=0;exitDy=0;exitPerimeter=0;entryX=0;entryY=0.5;entryDx=0;entryDy=0;" parent="1" source="3dwhWuTvUrP5A4k3dfD7-154" target="3dwhWuTvUrP5A4k3dfD7-155" edge="1">
          <mxGeometry x="-0.8182" relative="1" as="geometry">
            <Array as="points">
              <mxPoint x="520" y="2300" />
              <mxPoint x="640" y="2300" />
              <mxPoint x="640" y="2340" />
            </Array>
            <mxPoint as="offset" />
          </mxGeometry>
        </mxCell>
        <mxCell id="3dwhWuTvUrP5A4k3dfD7-165" value="N" style="edgeStyle=orthogonalEdgeStyle;rounded=0;orthogonalLoop=1;jettySize=auto;html=1;exitX=1;exitY=0.5;exitDx=0;exitDy=0;exitPerimeter=0;" parent="1" source="3dwhWuTvUrP5A4k3dfD7-154" target="3dwhWuTvUrP5A4k3dfD7-163" edge="1">
          <mxGeometry relative="1" as="geometry">
            <Array as="points" />
          </mxGeometry>
        </mxCell>
        <mxCell id="3dwhWuTvUrP5A4k3dfD7-154" value="取号成功？" style="strokeWidth=2;html=1;shape=mxgraph.flowchart.decision;whiteSpace=wrap;fillColor=none;" parent="1" vertex="1">
          <mxGeometry x="440" y="2240" width="160" height="40" as="geometry" />
        </mxCell>
        <mxCell id="3dwhWuTvUrP5A4k3dfD7-155" value="手机号一键登录页" style="shape=process;whiteSpace=wrap;html=1;backgroundOutline=1;fillColor=none;fontStyle=1" parent="1" vertex="1">
          <mxGeometry x="680" y="2320" width="160" height="40" as="geometry" />
        </mxCell>
        <mxCell id="3dwhWuTvUrP5A4k3dfD7-160" value="Y" style="edgeStyle=orthogonalEdgeStyle;rounded=0;orthogonalLoop=1;jettySize=auto;html=1;exitX=1;exitY=0.5;exitDx=0;exitDy=0;exitPerimeter=0;entryX=0;entryY=0.5;entryDx=0;entryDy=0;" parent="1" source="3dwhWuTvUrP5A4k3dfD7-158" target="3dwhWuTvUrP5A4k3dfD7-155" edge="1">
          <mxGeometry x="-0.5" relative="1" as="geometry">
            <mxPoint as="offset" />
          </mxGeometry>
        </mxCell>
        <mxCell id="3dwhWuTvUrP5A4k3dfD7-166" value="N" style="edgeStyle=orthogonalEdgeStyle;rounded=0;orthogonalLoop=1;jettySize=auto;html=1;exitX=0.5;exitY=1;exitDx=0;exitDy=0;exitPerimeter=0;" parent="1" source="3dwhWuTvUrP5A4k3dfD7-158" target="3dwhWuTvUrP5A4k3dfD7-147" edge="1">
          <mxGeometry relative="1" as="geometry">
            <mxPoint x="680" y="2380" as="targetPoint" />
          </mxGeometry>
        </mxCell>
        <mxCell id="3dwhWuTvUrP5A4k3dfD7-158" value="取号成功？" style="strokeWidth=2;html=1;shape=mxgraph.flowchart.decision;whiteSpace=wrap;fillColor=none;" parent="1" vertex="1">
          <mxGeometry x="440" y="2320" width="160" height="40" as="geometry" />
        </mxCell>
        <mxCell id="3dwhWuTvUrP5A4k3dfD7-162" style="edgeStyle=orthogonalEdgeStyle;rounded=0;orthogonalLoop=1;jettySize=auto;html=1;exitX=1;exitY=0.5;exitDx=0;exitDy=0;exitPerimeter=0;entryX=0;entryY=0.5;entryDx=0;entryDy=0;" parent="1" source="3dwhWuTvUrP5A4k3dfD7-104" target="3dwhWuTvUrP5A4k3dfD7-149" edge="1">
          <mxGeometry relative="1" as="geometry" />
        </mxCell>
        <mxCell id="3dwhWuTvUrP5A4k3dfD7-163" value="手机号密码登录&lt;br&gt;&lt;i&gt;ClickCodeLoginButton&lt;/i&gt;" style="rounded=1;whiteSpace=wrap;html=1;absoluteArcSize=1;arcSize=14;strokeWidth=2;fillColor=none;" parent="1" vertex="1">
          <mxGeometry x="680" y="2240" width="160" height="40" as="geometry" />
        </mxCell>
        <mxCell id="3dwhWuTvUrP5A4k3dfD7-174" style="edgeStyle=orthogonalEdgeStyle;rounded=0;orthogonalLoop=1;jettySize=auto;html=1;exitX=1;exitY=0.5;exitDx=0;exitDy=0;" parent="1" source="3dwhWuTvUrP5A4k3dfD7-171" target="3dwhWuTvUrP5A4k3dfD7-176" edge="1">
          <mxGeometry relative="1" as="geometry">
            <mxPoint x="440" y="2820" as="targetPoint" />
          </mxGeometry>
        </mxCell>
        <mxCell id="3dwhWuTvUrP5A4k3dfD7-171" value="忘记密码" style="rounded=1;whiteSpace=wrap;html=1;absoluteArcSize=1;arcSize=14;strokeWidth=2;fillColor=none;" parent="1" vertex="1">
          <mxGeometry x="200" y="2800" width="160" height="40" as="geometry" />
        </mxCell>
        <mxCell id="3dwhWuTvUrP5A4k3dfD7-172" style="edgeStyle=orthogonalEdgeStyle;rounded=0;orthogonalLoop=1;jettySize=auto;html=1;exitX=1;exitY=0.5;exitDx=0;exitDy=0;exitPerimeter=0;entryX=0;entryY=0.5;entryDx=0;entryDy=0;" parent="1" source="3dwhWuTvUrP5A4k3dfD7-104" target="3dwhWuTvUrP5A4k3dfD7-171" edge="1">
          <mxGeometry relative="1" as="geometry" />
        </mxCell>
        <mxCell id="3dwhWuTvUrP5A4k3dfD7-175" value="URLID跳转H5页面" style="rounded=1;whiteSpace=wrap;html=1;absoluteArcSize=1;arcSize=14;strokeWidth=2;fillColor=none;" parent="1" vertex="1">
          <mxGeometry x="440" y="1120" width="160" height="40" as="geometry" />
        </mxCell>
        <mxCell id="3dwhWuTvUrP5A4k3dfD7-176" value="URLID跳转H5页面" style="rounded=1;whiteSpace=wrap;html=1;absoluteArcSize=1;arcSize=14;strokeWidth=2;fillColor=none;" parent="1" vertex="1">
          <mxGeometry x="440" y="2800" width="160" height="40" as="geometry" />
        </mxCell>
        <mxCell id="3dwhWuTvUrP5A4k3dfD7-188" value="Y" style="edgeStyle=orthogonalEdgeStyle;rounded=0;orthogonalLoop=1;jettySize=auto;html=1;exitX=1;exitY=0.5;exitDx=0;exitDy=0;exitPerimeter=0;entryX=0;entryY=0.5;entryDx=0;entryDy=0;" parent="1" source="3dwhWuTvUrP5A4k3dfD7-179" target="3dwhWuTvUrP5A4k3dfD7-186" edge="1">
          <mxGeometry relative="1" as="geometry" />
        </mxCell>
        <mxCell id="3dwhWuTvUrP5A4k3dfD7-189" value="N" style="edgeStyle=orthogonalEdgeStyle;rounded=0;orthogonalLoop=1;jettySize=auto;html=1;exitX=0.5;exitY=0;exitDx=0;exitDy=0;exitPerimeter=0;" parent="1" source="3dwhWuTvUrP5A4k3dfD7-179" target="3dwhWuTvUrP5A4k3dfD7-187" edge="1">
          <mxGeometry relative="1" as="geometry">
            <Array as="points" />
          </mxGeometry>
        </mxCell>
        <mxCell id="3dwhWuTvUrP5A4k3dfD7-179" value="新用户" style="strokeWidth=2;html=1;shape=mxgraph.flowchart.decision;whiteSpace=wrap;fillColor=none;" parent="1" vertex="1">
          <mxGeometry x="440" y="1760" width="160" height="40" as="geometry" />
        </mxCell>
        <mxCell id="3dwhWuTvUrP5A4k3dfD7-192" style="edgeStyle=orthogonalEdgeStyle;rounded=0;orthogonalLoop=1;jettySize=auto;html=1;" parent="1" source="3dwhWuTvUrP5A4k3dfD7-186" target="3dwhWuTvUrP5A4k3dfD7-190" edge="1">
          <mxGeometry relative="1" as="geometry" />
        </mxCell>
        <mxCell id="3dwhWuTvUrP5A4k3dfD7-186" value="&lt;i&gt;Register&lt;/i&gt;" style="rounded=1;whiteSpace=wrap;html=1;absoluteArcSize=1;arcSize=14;strokeWidth=2;fillColor=none;" parent="1" vertex="1">
          <mxGeometry x="680" y="1760" width="160" height="40" as="geometry" />
        </mxCell>
        <mxCell id="3dwhWuTvUrP5A4k3dfD7-191" style="edgeStyle=orthogonalEdgeStyle;rounded=0;orthogonalLoop=1;jettySize=auto;html=1;exitX=1;exitY=0.5;exitDx=0;exitDy=0;" parent="1" source="3dwhWuTvUrP5A4k3dfD7-187" target="3dwhWuTvUrP5A4k3dfD7-190" edge="1">
          <mxGeometry relative="1" as="geometry" />
        </mxCell>
        <mxCell id="3dwhWuTvUrP5A4k3dfD7-187" value="&lt;i&gt;Login&lt;/i&gt;" style="rounded=1;whiteSpace=wrap;html=1;absoluteArcSize=1;arcSize=14;strokeWidth=2;fillColor=none;" parent="1" vertex="1">
          <mxGeometry x="440" y="1680" width="160" height="40" as="geometry" />
        </mxCell>
        <mxCell id="3dwhWuTvUrP5A4k3dfD7-190" value="进入首页" style="strokeWidth=2;html=1;shape=mxgraph.flowchart.terminator;whiteSpace=wrap;fillColor=none;strokeColor=#CC99FF;" parent="1" vertex="1">
          <mxGeometry x="680" y="1680" width="160" height="40" as="geometry" />
        </mxCell>
        <mxCell id="3dwhWuTvUrP5A4k3dfD7-193" value="验证登录密码页" style="shape=process;whiteSpace=wrap;html=1;backgroundOutline=1;fillColor=none;fontStyle=1" parent="1" vertex="1">
          <mxGeometry x="680" y="1840" width="160" height="40" as="geometry" />
        </mxCell>
        <mxCell id="3dwhWuTvUrP5A4k3dfD7-200" style="edgeStyle=orthogonalEdgeStyle;rounded=0;orthogonalLoop=1;jettySize=auto;html=1;exitX=1;exitY=0.5;exitDx=0;exitDy=0;" parent="1" source="3dwhWuTvUrP5A4k3dfD7-197" target="3dwhWuTvUrP5A4k3dfD7-198" edge="1">
          <mxGeometry relative="1" as="geometry" />
        </mxCell>
        <mxCell id="3dwhWuTvUrP5A4k3dfD7-197" value="弹出失败提示" style="rounded=1;whiteSpace=wrap;html=1;absoluteArcSize=1;arcSize=14;strokeWidth=2;fillColor=none;" parent="1" vertex="1">
          <mxGeometry x="440" y="1920" width="160" height="40" as="geometry" />
        </mxCell>
        <mxCell id="3dwhWuTvUrP5A4k3dfD7-198" value="牛牛帐号密码登录页" style="shape=process;whiteSpace=wrap;html=1;backgroundOutline=1;fillColor=none;fontStyle=1" parent="1" vertex="1">
          <mxGeometry x="680" y="1920" width="160" height="40" as="geometry" />
        </mxCell>
        <mxCell id="3dwhWuTvUrP5A4k3dfD7-201" value="验证短信验证码页" style="shape=process;whiteSpace=wrap;html=1;backgroundOutline=1;fillColor=none;fontStyle=1" parent="1" vertex="1">
          <mxGeometry x="680" y="2000" width="160" height="40" as="geometry" />
        </mxCell>
        <mxCell id="3dwhWuTvUrP5A4k3dfD7-204" value="弹出Toast提示" style="rounded=1;whiteSpace=wrap;html=1;absoluteArcSize=1;arcSize=14;strokeWidth=2;fillColor=none;" parent="1" vertex="1">
          <mxGeometry x="680" y="2080" width="160" height="40" as="geometry" />
        </mxCell>
        <mxCell id="3dwhWuTvUrP5A4k3dfD7-207" value="弹窗提示常见原因" style="rounded=1;whiteSpace=wrap;html=1;absoluteArcSize=1;arcSize=14;strokeWidth=2;fillColor=none;" parent="1" vertex="1">
          <mxGeometry x="680" y="2160" width="160" height="40" as="geometry" />
        </mxCell>
        <mxCell id="3dwhWuTvUrP5A4k3dfD7-208" style="edgeStyle=orthogonalEdgeStyle;rounded=0;orthogonalLoop=1;jettySize=auto;html=1;exitX=1;exitY=0.5;exitDx=0;exitDy=0;entryX=0;entryY=0.5;entryDx=0;entryDy=0;" parent="1" source="3dwhWuTvUrP5A4k3dfD7-131" target="3dwhWuTvUrP5A4k3dfD7-207" edge="1">
          <mxGeometry relative="1" as="geometry">
            <Array as="points">
              <mxPoint x="400" y="1780" />
              <mxPoint x="400" y="2180" />
            </Array>
          </mxGeometry>
        </mxCell>
        <mxCell id="3dwhWuTvUrP5A4k3dfD7-209" value="连续失败三次" style="edgeLabel;html=1;align=center;verticalAlign=middle;resizable=0;points=[];" parent="3dwhWuTvUrP5A4k3dfD7-208" vertex="1" connectable="0">
          <mxGeometry x="0.5344" y="-3" relative="1" as="geometry">
            <mxPoint x="8" y="-3" as="offset" />
          </mxGeometry>
        </mxCell>
        <mxCell id="3dwhWuTvUrP5A4k3dfD7-212" value="" style="edgeStyle=orthogonalEdgeStyle;rounded=0;orthogonalLoop=1;jettySize=auto;html=1;entryX=0;entryY=0.5;entryDx=0;entryDy=0;entryPerimeter=0;exitX=0;exitY=0.5;exitDx=0;exitDy=0;exitPerimeter=0;" parent="1" source="3dwhWuTvUrP5A4k3dfD7-210" target="3dwhWuTvUrP5A4k3dfD7-211" edge="1">
          <mxGeometry relative="1" as="geometry">
            <mxPoint x="2600" y="50" as="sourcePoint" />
            <Array as="points">
              <mxPoint x="2280" y="60" />
              <mxPoint x="2280" y="900" />
            </Array>
          </mxGeometry>
        </mxCell>
        <mxCell id="3dwhWuTvUrP5A4k3dfD7-247" value="自动登录" style="edgeLabel;html=1;align=center;verticalAlign=middle;resizable=0;points=[];" parent="3dwhWuTvUrP5A4k3dfD7-212" vertex="1" connectable="0">
          <mxGeometry x="-0.8779" relative="1" as="geometry">
            <mxPoint x="44" as="offset" />
          </mxGeometry>
        </mxCell>
        <mxCell id="3dwhWuTvUrP5A4k3dfD7-248" value="根据上次登录方式选择" style="edgeStyle=none;rounded=0;orthogonalLoop=1;jettySize=auto;html=1;exitX=0.5;exitY=1;exitDx=0;exitDy=0;exitPerimeter=0;startArrow=none;startFill=0;endArrow=classic;endFill=1;" parent="1" source="3dwhWuTvUrP5A4k3dfD7-210" target="3dwhWuTvUrP5A4k3dfD7-243" edge="1">
          <mxGeometry relative="1" as="geometry" />
        </mxCell>
        <mxCell id="3dwhWuTvUrP5A4k3dfD7-210" value="牛牛App启动" style="strokeWidth=2;html=1;shape=mxgraph.flowchart.terminator;whiteSpace=wrap;fillColor=none;strokeColor=#CC99FF;" parent="1" vertex="1">
          <mxGeometry x="2680" y="40" width="160" height="40" as="geometry" />
        </mxCell>
        <mxCell id="3dwhWuTvUrP5A4k3dfD7-252" value="account/bindThird" style="edgeStyle=none;rounded=0;orthogonalLoop=1;jettySize=auto;html=1;exitX=0.5;exitY=0;exitDx=0;exitDy=0;exitPerimeter=0;startArrow=none;startFill=0;endArrow=classic;endFill=1;" parent="1" source="3dwhWuTvUrP5A4k3dfD7-211" target="3dwhWuTvUrP5A4k3dfD7-250" edge="1">
          <mxGeometry relative="1" as="geometry" />
        </mxCell>
        <mxCell id="3dwhWuTvUrP5A4k3dfD7-254" value="游客态去登录&lt;br&gt;退出登录&lt;br&gt;login scheme" style="edgeStyle=orthogonalEdgeStyle;rounded=0;orthogonalLoop=1;jettySize=auto;html=1;exitX=1;exitY=0.5;exitDx=0;exitDy=0;exitPerimeter=0;startArrow=none;startFill=0;endArrow=classic;endFill=1;" parent="1" source="3dwhWuTvUrP5A4k3dfD7-211" target="3dwhWuTvUrP5A4k3dfD7-243" edge="1">
          <mxGeometry x="-0.6" relative="1" as="geometry">
            <Array as="points">
              <mxPoint x="3240" y="900" />
              <mxPoint x="3240" y="300" />
            </Array>
            <mxPoint as="offset" />
          </mxGeometry>
        </mxCell>
        <mxCell id="3dwhWuTvUrP5A4k3dfD7-256" value="根据上次登录方式选择" style="edgeLabel;html=1;align=center;verticalAlign=middle;resizable=0;points=[];" parent="3dwhWuTvUrP5A4k3dfD7-254" vertex="1" connectable="0">
          <mxGeometry x="0.842" y="-1" relative="1" as="geometry">
            <mxPoint as="offset" />
          </mxGeometry>
        </mxCell>
        <mxCell id="3dwhWuTvUrP5A4k3dfD7-211" value="主界面" style="strokeWidth=2;html=1;shape=mxgraph.flowchart.terminator;whiteSpace=wrap;fillColor=none;strokeColor=#CC99FF;" parent="1" vertex="1">
          <mxGeometry x="2680" y="880" width="160" height="40" as="geometry" />
        </mxCell>
        <mxCell id="3dwhWuTvUrP5A4k3dfD7-220" style="rounded=0;orthogonalLoop=1;jettySize=auto;html=1;exitX=0.5;exitY=0;exitDx=0;exitDy=0;entryX=0;entryY=0.5;entryDx=0;entryDy=0;startArrow=none;startFill=0;" parent="1" source="3dwhWuTvUrP5A4k3dfD7-215" target="3dwhWuTvUrP5A4k3dfD7-216" edge="1">
          <mxGeometry relative="1" as="geometry" />
        </mxCell>
        <mxCell id="3dwhWuTvUrP5A4k3dfD7-222" style="rounded=0;orthogonalLoop=1;jettySize=auto;html=1;exitX=1;exitY=0.5;exitDx=0;exitDy=0;entryX=0;entryY=0.5;entryDx=0;entryDy=0;" parent="1" source="3dwhWuTvUrP5A4k3dfD7-215" target="3dwhWuTvUrP5A4k3dfD7-218" edge="1">
          <mxGeometry relative="1" as="geometry" />
        </mxCell>
        <mxCell id="3dwhWuTvUrP5A4k3dfD7-215" value="引导登录页&lt;br&gt;OneKeyLoginFragment" style="rounded=1;whiteSpace=wrap;html=1;absoluteArcSize=1;arcSize=14;strokeWidth=2;fillColor=none;" parent="1" vertex="1">
          <mxGeometry x="2481" y="280" width="160" height="40" as="geometry" />
        </mxCell>
        <mxCell id="3dwhWuTvUrP5A4k3dfD7-216" value="手机号一键登录页&lt;br&gt;OperatorView" style="rounded=1;whiteSpace=wrap;html=1;absoluteArcSize=1;arcSize=14;strokeWidth=2;fillColor=none;" parent="1" vertex="1">
          <mxGeometry x="2680" y="200" width="160" height="40" as="geometry" />
        </mxCell>
        <mxCell id="3dwhWuTvUrP5A4k3dfD7-224" style="rounded=0;orthogonalLoop=1;jettySize=auto;html=1;exitX=0.5;exitY=1;exitDx=0;exitDy=0;entryX=1;entryY=0.5;entryDx=0;entryDy=0;startArrow=classic;startFill=1;" parent="1" source="3dwhWuTvUrP5A4k3dfD7-218" target="3dwhWuTvUrP5A4k3dfD7-219" edge="1">
          <mxGeometry relative="1" as="geometry" />
        </mxCell>
        <mxCell id="3dwhWuTvUrP5A4k3dfD7-227" style="edgeStyle=none;rounded=0;orthogonalLoop=1;jettySize=auto;html=1;exitX=0.5;exitY=0;exitDx=0;exitDy=0;entryX=1;entryY=0.5;entryDx=0;entryDy=0;endArrow=classic;endFill=1;startArrow=classic;startFill=1;" parent="1" source="3dwhWuTvUrP5A4k3dfD7-218" target="3dwhWuTvUrP5A4k3dfD7-216" edge="1">
          <mxGeometry relative="1" as="geometry" />
        </mxCell>
        <mxCell id="3dwhWuTvUrP5A4k3dfD7-218" value="手机号短信/密码登录页&lt;br&gt;PhoneSmsLoginFragment" style="rounded=1;whiteSpace=wrap;html=1;absoluteArcSize=1;arcSize=14;strokeWidth=2;fillColor=none;" parent="1" vertex="1">
          <mxGeometry x="2880" y="280" width="160" height="40" as="geometry" />
        </mxCell>
        <mxCell id="3dwhWuTvUrP5A4k3dfD7-225" style="rounded=0;orthogonalLoop=1;jettySize=auto;html=1;exitX=0.5;exitY=0;exitDx=0;exitDy=0;entryX=0.5;entryY=1;entryDx=0;entryDy=0;startArrow=classic;startFill=1;" parent="1" source="3dwhWuTvUrP5A4k3dfD7-219" target="3dwhWuTvUrP5A4k3dfD7-216" edge="1">
          <mxGeometry relative="1" as="geometry" />
        </mxCell>
        <mxCell id="3dwhWuTvUrP5A4k3dfD7-228" style="edgeStyle=none;rounded=0;orthogonalLoop=1;jettySize=auto;html=1;exitX=0;exitY=0.5;exitDx=0;exitDy=0;entryX=0.5;entryY=1;entryDx=0;entryDy=0;startArrow=classic;startFill=1;" parent="1" source="3dwhWuTvUrP5A4k3dfD7-219" target="3dwhWuTvUrP5A4k3dfD7-215" edge="1">
          <mxGeometry relative="1" as="geometry" />
        </mxCell>
        <mxCell id="3dwhWuTvUrP5A4k3dfD7-219" value="帐号密码登录页&lt;br&gt;AccountLoginFragment" style="rounded=1;whiteSpace=wrap;html=1;absoluteArcSize=1;arcSize=14;strokeWidth=2;fillColor=none;" parent="1" vertex="1">
          <mxGeometry x="2680" y="360" width="160" height="40" as="geometry" />
        </mxCell>
        <mxCell id="3dwhWuTvUrP5A4k3dfD7-236" value="验证短信页&lt;br&gt;CellphoneVerificationFragment&lt;br&gt;SMSOrVoiceVerificationCodeInputFragment" style="rounded=1;whiteSpace=wrap;html=1;absoluteArcSize=1;arcSize=14;strokeWidth=2;fillColor=none;" parent="1" vertex="1">
          <mxGeometry x="2579" y="520" width="160" height="40" as="geometry" />
        </mxCell>
        <mxCell id="3dwhWuTvUrP5A4k3dfD7-237" value="验证登录密码页&lt;br&gt;VerifyPasswordFragment" style="rounded=1;whiteSpace=wrap;html=1;absoluteArcSize=1;arcSize=14;strokeWidth=2;fillColor=none;fontStyle=1" parent="1" vertex="1">
          <mxGeometry x="2380" y="520" width="160" height="40" as="geometry" />
        </mxCell>
        <mxCell id="3dwhWuTvUrP5A4k3dfD7-239" value="三方引导绑定手机号页" style="rounded=1;whiteSpace=wrap;html=1;absoluteArcSize=1;arcSize=14;strokeWidth=2;fillColor=none;" parent="1" vertex="1">
          <mxGeometry x="2779" y="520" width="160" height="40" as="geometry" />
        </mxCell>
        <mxCell id="3dwhWuTvUrP5A4k3dfD7-240" value="验证图形验证码页&lt;br&gt;VerifyCodeFragment" style="rounded=1;whiteSpace=wrap;html=1;absoluteArcSize=1;arcSize=14;strokeWidth=2;fillColor=none;" parent="1" vertex="1">
          <mxGeometry x="2979" y="520" width="160" height="40" as="geometry" />
        </mxCell>
        <mxCell id="3dwhWuTvUrP5A4k3dfD7-241" value="绑定手机号页&lt;br&gt;PhoneLoginFragment" style="rounded=1;whiteSpace=wrap;html=1;absoluteArcSize=1;arcSize=14;strokeWidth=2;fillColor=none;" parent="1" vertex="1">
          <mxGeometry x="2480" y="760" width="160" height="40" as="geometry" />
        </mxCell>
        <mxCell id="3dwhWuTvUrP5A4k3dfD7-253" style="edgeStyle=none;rounded=0;orthogonalLoop=1;jettySize=auto;html=1;exitX=0;exitY=0.5;exitDx=0;exitDy=0;startArrow=classic;startFill=1;endArrow=classic;endFill=1;" parent="1" source="3dwhWuTvUrP5A4k3dfD7-242" target="3dwhWuTvUrP5A4k3dfD7-241" edge="1">
          <mxGeometry relative="1" as="geometry" />
        </mxCell>
        <mxCell id="3dwhWuTvUrP5A4k3dfD7-242" value="绑定帐号页&lt;br&gt;BindLoginFragment" style="rounded=1;whiteSpace=wrap;html=1;absoluteArcSize=1;arcSize=14;strokeWidth=2;fillColor=none;" parent="1" vertex="1">
          <mxGeometry x="2880" y="760" width="160" height="40" as="geometry" />
        </mxCell>
        <mxCell id="3dwhWuTvUrP5A4k3dfD7-246" value="" style="edgeStyle=orthogonalEdgeStyle;rounded=0;orthogonalLoop=1;jettySize=auto;html=1;entryX=0;entryY=0.5;entryDx=0;entryDy=0;entryPerimeter=0;" parent="1" source="3dwhWuTvUrP5A4k3dfD7-243" target="3dwhWuTvUrP5A4k3dfD7-211" edge="1">
          <mxGeometry x="-1" y="-354" relative="1" as="geometry">
            <mxPoint x="2600" y="50" as="sourcePoint" />
            <Array as="points">
              <mxPoint x="2280" y="300" />
              <mxPoint x="2280" y="900" />
            </Array>
            <mxPoint x="260" y="114" as="offset" />
          </mxGeometry>
        </mxCell>
        <mxCell id="9hEt3C56FuFohcuwkKSW-18" value="登录成功&lt;br&gt;游客" style="edgeLabel;html=1;align=center;verticalAlign=middle;resizable=0;points=[];" vertex="1" connectable="0" parent="3dwhWuTvUrP5A4k3dfD7-246">
          <mxGeometry x="-0.9574" y="-1" relative="1" as="geometry">
            <mxPoint x="-17" y="1" as="offset" />
          </mxGeometry>
        </mxCell>
        <mxCell id="3dwhWuTvUrP5A4k3dfD7-249" value="" style="edgeStyle=orthogonalEdgeStyle;rounded=0;orthogonalLoop=1;jettySize=auto;html=1;entryX=0;entryY=0.5;entryDx=0;entryDy=0;entryPerimeter=0;" parent="1" source="3dwhWuTvUrP5A4k3dfD7-244" target="3dwhWuTvUrP5A4k3dfD7-211" edge="1">
          <mxGeometry x="-1" y="-354" relative="1" as="geometry">
            <mxPoint x="2600" y="50" as="sourcePoint" />
            <Array as="points">
              <mxPoint x="2280" y="540" />
              <mxPoint x="2280" y="900" />
            </Array>
            <mxPoint x="260" y="114" as="offset" />
          </mxGeometry>
        </mxCell>
        <mxCell id="9hEt3C56FuFohcuwkKSW-19" value="登录成功&lt;br&gt;游客" style="edgeLabel;html=1;align=center;verticalAlign=middle;resizable=0;points=[];" vertex="1" connectable="0" parent="3dwhWuTvUrP5A4k3dfD7-249">
          <mxGeometry x="-0.9548" y="-1" relative="1" as="geometry">
            <mxPoint x="-21" y="1" as="offset" />
          </mxGeometry>
        </mxCell>
        <mxCell id="3dwhWuTvUrP5A4k3dfD7-255" value="" style="edgeStyle=none;rounded=0;orthogonalLoop=1;jettySize=auto;html=1;startArrow=none;startFill=0;endArrow=classic;endFill=1;" parent="1" source="3dwhWuTvUrP5A4k3dfD7-250" target="3dwhWuTvUrP5A4k3dfD7-244" edge="1">
          <mxGeometry relative="1" as="geometry">
            <mxPoint x="2790" y="700" as="sourcePoint" />
            <mxPoint x="2760" y="480" as="targetPoint" />
          </mxGeometry>
        </mxCell>
        <mxCell id="3dwhWuTvUrP5A4k3dfD7-257" value="Moomoo App启动" style="strokeWidth=2;html=1;shape=mxgraph.flowchart.terminator;whiteSpace=wrap;fillColor=none;strokeColor=#CC99FF;" parent="1" vertex="1">
          <mxGeometry x="2680" y="960" width="160" height="40" as="geometry" />
        </mxCell>
        <mxCell id="3dwhWuTvUrP5A4k3dfD7-266" style="edgeStyle=orthogonalEdgeStyle;rounded=0;orthogonalLoop=1;jettySize=auto;html=1;startArrow=classic;startFill=1;endArrow=classic;endFill=1;" parent="1" source="3dwhWuTvUrP5A4k3dfD7-258" target="3dwhWuTvUrP5A4k3dfD7-265" edge="1">
          <mxGeometry relative="1" as="geometry" />
        </mxCell>
        <mxCell id="3dwhWuTvUrP5A4k3dfD7-274" style="edgeStyle=orthogonalEdgeStyle;rounded=0;orthogonalLoop=1;jettySize=auto;html=1;exitX=0.75;exitY=0;exitDx=0;exitDy=0;entryX=0.25;entryY=1;entryDx=0;entryDy=0;startArrow=classic;startFill=1;endArrow=classic;endFill=1;" parent="1" source="3dwhWuTvUrP5A4k3dfD7-258" target="3dwhWuTvUrP5A4k3dfD7-259" edge="1">
          <mxGeometry relative="1" as="geometry" />
        </mxCell>
        <mxCell id="3dwhWuTvUrP5A4k3dfD7-258" value="引导登录页&lt;br&gt;RegisterCommonMethodFragment" style="rounded=1;whiteSpace=wrap;html=1;absoluteArcSize=1;arcSize=14;strokeWidth=2;fillColor=none;" parent="1" vertex="1">
          <mxGeometry x="2481" y="1200" width="160" height="40" as="geometry" />
        </mxCell>
        <mxCell id="3dwhWuTvUrP5A4k3dfD7-267" style="edgeStyle=orthogonalEdgeStyle;rounded=0;orthogonalLoop=1;jettySize=auto;html=1;exitX=0.5;exitY=1;exitDx=0;exitDy=0;startArrow=classic;startFill=1;endArrow=classic;endFill=1;" parent="1" source="3dwhWuTvUrP5A4k3dfD7-259" target="3dwhWuTvUrP5A4k3dfD7-265" edge="1">
          <mxGeometry relative="1" as="geometry" />
        </mxCell>
        <mxCell id="3dwhWuTvUrP5A4k3dfD7-269" style="edgeStyle=orthogonalEdgeStyle;rounded=0;orthogonalLoop=1;jettySize=auto;html=1;exitX=1;exitY=0.5;exitDx=0;exitDy=0;startArrow=classic;startFill=1;endArrow=classic;endFill=1;" parent="1" source="3dwhWuTvUrP5A4k3dfD7-259" target="3dwhWuTvUrP5A4k3dfD7-268" edge="1">
          <mxGeometry relative="1" as="geometry" />
        </mxCell>
        <mxCell id="3dwhWuTvUrP5A4k3dfD7-259" value="帐号密码登录页&lt;br&gt;AccountLoginFragment" style="rounded=1;whiteSpace=wrap;html=1;absoluteArcSize=1;arcSize=14;strokeWidth=2;fillColor=none;" parent="1" vertex="1">
          <mxGeometry x="2680" y="1120" width="160" height="40" as="geometry" />
        </mxCell>
        <mxCell id="3dwhWuTvUrP5A4k3dfD7-261" style="edgeStyle=orthogonalEdgeStyle;rounded=0;orthogonalLoop=1;jettySize=auto;html=1;exitX=1;exitY=0.5;exitDx=0;exitDy=0;startArrow=classic;startFill=1;endArrow=classic;endFill=1;" parent="1" source="3dwhWuTvUrP5A4k3dfD7-260" target="3dwhWuTvUrP5A4k3dfD7-259" edge="1">
          <mxGeometry relative="1" as="geometry" />
        </mxCell>
        <mxCell id="3dwhWuTvUrP5A4k3dfD7-263" style="edgeStyle=orthogonalEdgeStyle;rounded=0;orthogonalLoop=1;jettySize=auto;html=1;exitX=0.5;exitY=1;exitDx=0;exitDy=0;startArrow=classic;startFill=1;endArrow=classic;endFill=1;" parent="1" source="3dwhWuTvUrP5A4k3dfD7-260" target="3dwhWuTvUrP5A4k3dfD7-258" edge="1">
          <mxGeometry relative="1" as="geometry" />
        </mxCell>
        <mxCell id="3dwhWuTvUrP5A4k3dfD7-260" value="首次登录页&lt;br&gt;FirstLoginFragment" style="rounded=1;whiteSpace=wrap;html=1;absoluteArcSize=1;arcSize=14;strokeWidth=2;fillColor=none;" parent="1" vertex="1">
          <mxGeometry x="2481" y="1120" width="160" height="40" as="geometry" />
        </mxCell>
        <mxCell id="3dwhWuTvUrP5A4k3dfD7-270" style="edgeStyle=orthogonalEdgeStyle;rounded=0;orthogonalLoop=1;jettySize=auto;html=1;exitX=0.5;exitY=1;exitDx=0;exitDy=0;entryX=1;entryY=0.5;entryDx=0;entryDy=0;startArrow=classic;startFill=1;endArrow=classic;endFill=1;" parent="1" source="3dwhWuTvUrP5A4k3dfD7-268" target="3dwhWuTvUrP5A4k3dfD7-265" edge="1">
          <mxGeometry relative="1" as="geometry" />
        </mxCell>
        <mxCell id="3dwhWuTvUrP5A4k3dfD7-268" value="手机号密码登录页&lt;br&gt;PhoneLoginFragment" style="rounded=1;whiteSpace=wrap;html=1;absoluteArcSize=1;arcSize=14;strokeWidth=2;fillColor=none;" parent="1" vertex="1">
          <mxGeometry x="2880" y="1120" width="160" height="40" as="geometry" />
        </mxCell>
        <mxCell id="3dwhWuTvUrP5A4k3dfD7-273" style="edgeStyle=orthogonalEdgeStyle;rounded=0;orthogonalLoop=1;jettySize=auto;html=1;exitX=0.25;exitY=1;exitDx=0;exitDy=0;entryX=1;entryY=0.5;entryDx=0;entryDy=0;startArrow=classic;startFill=1;endArrow=classic;endFill=1;" parent="1" source="3dwhWuTvUrP5A4k3dfD7-265" target="3dwhWuTvUrP5A4k3dfD7-272" edge="1">
          <mxGeometry relative="1" as="geometry" />
        </mxCell>
        <mxCell id="3dwhWuTvUrP5A4k3dfD7-277" style="edgeStyle=orthogonalEdgeStyle;rounded=0;orthogonalLoop=1;jettySize=auto;html=1;exitX=0.75;exitY=1;exitDx=0;exitDy=0;entryX=0.25;entryY=0;entryDx=0;entryDy=0;startArrow=classic;startFill=1;endArrow=classic;endFill=1;" parent="1" source="3dwhWuTvUrP5A4k3dfD7-265" target="3dwhWuTvUrP5A4k3dfD7-276" edge="1">
          <mxGeometry relative="1" as="geometry" />
        </mxCell>
        <mxCell id="3dwhWuTvUrP5A4k3dfD7-265" value="邮箱/手机注册页&lt;br&gt;RegisterMethodFragment&lt;br&gt;EmailRegisterFragment&lt;br&gt;PhoneRegisterFragment" style="rounded=1;whiteSpace=wrap;html=1;absoluteArcSize=1;arcSize=14;strokeWidth=2;fillColor=none;" parent="1" vertex="1">
          <mxGeometry x="2680" y="1200" width="160" height="40" as="geometry" />
        </mxCell>
        <mxCell id="3dwhWuTvUrP5A4k3dfD7-271" style="edgeStyle=orthogonalEdgeStyle;rounded=0;orthogonalLoop=1;jettySize=auto;html=1;exitX=1;exitY=0.5;exitDx=0;exitDy=0;startArrow=classic;startFill=1;endArrow=classic;endFill=1;" parent="1" source="3dwhWuTvUrP5A4k3dfD7-258" target="3dwhWuTvUrP5A4k3dfD7-265" edge="1">
          <mxGeometry relative="1" as="geometry">
            <mxPoint x="2641" y="1220" as="sourcePoint" />
            <mxPoint x="2760" y="1160" as="targetPoint" />
          </mxGeometry>
        </mxCell>
        <mxCell id="3dwhWuTvUrP5A4k3dfD7-275" style="edgeStyle=orthogonalEdgeStyle;rounded=0;orthogonalLoop=1;jettySize=auto;html=1;exitX=0;exitY=0.5;exitDx=0;exitDy=0;entryX=0.25;entryY=0;entryDx=0;entryDy=0;startArrow=classic;startFill=1;endArrow=classic;endFill=1;" parent="1" source="3dwhWuTvUrP5A4k3dfD7-272" target="3dwhWuTvUrP5A4k3dfD7-259" edge="1">
          <mxGeometry relative="1" as="geometry">
            <Array as="points">
              <mxPoint x="2460" y="1300" />
              <mxPoint x="2460" y="1100" />
              <mxPoint x="2720" y="1100" />
            </Array>
          </mxGeometry>
        </mxCell>
        <mxCell id="3dwhWuTvUrP5A4k3dfD7-272" value="邮箱注册设置密码&lt;br&gt;EmailRegisterPasswordFragment" style="rounded=1;whiteSpace=wrap;html=1;absoluteArcSize=1;arcSize=14;strokeWidth=2;fillColor=none;" parent="1" vertex="1">
          <mxGeometry x="2480" y="1280" width="160" height="40" as="geometry" />
        </mxCell>
        <mxCell id="3dwhWuTvUrP5A4k3dfD7-278" style="edgeStyle=orthogonalEdgeStyle;rounded=0;orthogonalLoop=1;jettySize=auto;html=1;exitX=1;exitY=0.5;exitDx=0;exitDy=0;startArrow=classic;startFill=1;endArrow=classic;endFill=1;" parent="1" source="3dwhWuTvUrP5A4k3dfD7-276" target="3dwhWuTvUrP5A4k3dfD7-279" edge="1">
          <mxGeometry relative="1" as="geometry" />
        </mxCell>
        <mxCell id="3dwhWuTvUrP5A4k3dfD7-276" value="手机注册短信验证&lt;br&gt;RegisterPhoneVerifyFragment" style="rounded=1;whiteSpace=wrap;html=1;absoluteArcSize=1;arcSize=14;strokeWidth=2;fillColor=none;" parent="1" vertex="1">
          <mxGeometry x="2760" y="1280" width="160" height="40" as="geometry" />
        </mxCell>
        <mxCell id="3dwhWuTvUrP5A4k3dfD7-280" style="edgeStyle=orthogonalEdgeStyle;rounded=0;orthogonalLoop=1;jettySize=auto;html=1;exitX=0.75;exitY=0;exitDx=0;exitDy=0;entryX=0.75;entryY=0;entryDx=0;entryDy=0;startArrow=classic;startFill=1;endArrow=classic;endFill=1;" parent="1" source="3dwhWuTvUrP5A4k3dfD7-279" target="3dwhWuTvUrP5A4k3dfD7-259" edge="1">
          <mxGeometry relative="1" as="geometry" />
        </mxCell>
        <mxCell id="3dwhWuTvUrP5A4k3dfD7-279" value="手机注册设置密码&lt;br&gt;PhoneRegisterPasswordFragment" style="rounded=1;whiteSpace=wrap;html=1;absoluteArcSize=1;arcSize=14;strokeWidth=2;fillColor=none;" parent="1" vertex="1">
          <mxGeometry x="2960" y="1280" width="160" height="40" as="geometry" />
        </mxCell>
        <mxCell id="3dwhWuTvUrP5A4k3dfD7-281" value="认证手机号页&lt;br&gt;CellphoneAuthenticateFragment" style="rounded=1;whiteSpace=wrap;html=1;absoluteArcSize=1;arcSize=14;strokeWidth=2;fillColor=none;" parent="1" vertex="1">
          <mxGeometry x="2380" y="600" width="160" height="40" as="geometry" />
        </mxCell>
        <mxCell id="3dwhWuTvUrP5A4k3dfD7-282" value="选择国家/地区界面&lt;br&gt;CountrySelectFragment" style="rounded=1;whiteSpace=wrap;html=1;absoluteArcSize=1;arcSize=14;strokeWidth=2;fillColor=none;" parent="1" vertex="1">
          <mxGeometry x="2580" y="600" width="160" height="40" as="geometry" />
        </mxCell>
        <mxCell id="3dwhWuTvUrP5A4k3dfD7-283" value="登录过程页面" style="shape=umlFrame;whiteSpace=wrap;html=1;strokeColor=#000000;fillColor=none;width=120;height=20;" parent="1" vertex="1">
          <mxGeometry x="2360" y="1440" width="800" height="200" as="geometry" />
        </mxCell>
        <mxCell id="3dwhWuTvUrP5A4k3dfD7-284" value="验证短信页&lt;br&gt;CellphoneVerificationFragment&lt;br&gt;SMSOrVoiceVerificationCodeInputFragment" style="rounded=1;whiteSpace=wrap;html=1;absoluteArcSize=1;arcSize=14;strokeWidth=2;fillColor=none;" parent="1" vertex="1">
          <mxGeometry x="2579" y="1480" width="160" height="40" as="geometry" />
        </mxCell>
        <mxCell id="3dwhWuTvUrP5A4k3dfD7-285" value="验证登录密码页&lt;br&gt;VerifyPasswordFragment" style="rounded=1;whiteSpace=wrap;html=1;absoluteArcSize=1;arcSize=14;strokeWidth=2;fillColor=none;fontStyle=1" parent="1" vertex="1">
          <mxGeometry x="2380" y="1480" width="160" height="40" as="geometry" />
        </mxCell>
        <mxCell id="3dwhWuTvUrP5A4k3dfD7-286" value="三方引导绑定帐号页&lt;br&gt;BindThirdOrRegisterFragment&lt;br&gt;AccountBindFragment" style="rounded=1;whiteSpace=wrap;html=1;absoluteArcSize=1;arcSize=14;strokeWidth=2;fillColor=none;" parent="1" vertex="1">
          <mxGeometry x="2779" y="1480" width="160" height="40" as="geometry" />
        </mxCell>
        <mxCell id="3dwhWuTvUrP5A4k3dfD7-287" value="验证图形验证码页&lt;br&gt;VerifyCodeFragment" style="rounded=1;whiteSpace=wrap;html=1;absoluteArcSize=1;arcSize=14;strokeWidth=2;fillColor=none;" parent="1" vertex="1">
          <mxGeometry x="2979" y="1480" width="160" height="40" as="geometry" />
        </mxCell>
        <mxCell id="3dwhWuTvUrP5A4k3dfD7-288" value="认证手机号页&lt;br&gt;CellphoneAuthenticateFragment" style="rounded=1;whiteSpace=wrap;html=1;absoluteArcSize=1;arcSize=14;strokeWidth=2;fillColor=none;" parent="1" vertex="1">
          <mxGeometry x="2380" y="1560" width="160" height="40" as="geometry" />
        </mxCell>
        <mxCell id="3dwhWuTvUrP5A4k3dfD7-289" value="选择国家/地区界面&lt;br&gt;CountrySelectFragment" style="rounded=1;whiteSpace=wrap;html=1;absoluteArcSize=1;arcSize=14;strokeWidth=2;fillColor=none;" parent="1" vertex="1">
          <mxGeometry x="2580" y="1560" width="160" height="40" as="geometry" />
        </mxCell>
        <mxCell id="3dwhWuTvUrP5A4k3dfD7-290" value="绑定登录页面" style="shape=umlFrame;whiteSpace=wrap;html=1;strokeColor=#000000;fillColor=none;width=120;height=20;" parent="1" vertex="1">
          <mxGeometry x="2360" y="1760" width="800" height="120" as="geometry" />
        </mxCell>
        <mxCell id="3dwhWuTvUrP5A4k3dfD7-291" value="绑定手机号页&lt;br&gt;PhoneLoginFragment" style="rounded=1;whiteSpace=wrap;html=1;absoluteArcSize=1;arcSize=14;strokeWidth=2;fillColor=none;" parent="1" vertex="1">
          <mxGeometry x="2480" y="1800" width="160" height="40" as="geometry" />
        </mxCell>
        <mxCell id="3dwhWuTvUrP5A4k3dfD7-292" style="edgeStyle=none;rounded=0;orthogonalLoop=1;jettySize=auto;html=1;exitX=0;exitY=0.5;exitDx=0;exitDy=0;startArrow=classic;startFill=1;endArrow=classic;endFill=1;" parent="1" source="3dwhWuTvUrP5A4k3dfD7-293" target="3dwhWuTvUrP5A4k3dfD7-291" edge="1">
          <mxGeometry relative="1" as="geometry" />
        </mxCell>
        <mxCell id="3dwhWuTvUrP5A4k3dfD7-293" value="绑定帐号页&lt;br&gt;BindLoginFragment" style="rounded=1;whiteSpace=wrap;html=1;absoluteArcSize=1;arcSize=14;strokeWidth=2;fillColor=none;" parent="1" vertex="1">
          <mxGeometry x="2880" y="1800" width="160" height="40" as="geometry" />
        </mxCell>
        <mxCell id="3dwhWuTvUrP5A4k3dfD7-294" value="GOOGLE一键登录页&lt;br&gt;OneKeyLoginFragment" style="rounded=1;whiteSpace=wrap;html=1;absoluteArcSize=1;arcSize=14;strokeWidth=2;fillColor=none;" parent="1" vertex="1">
          <mxGeometry x="2480" y="1360" width="160" height="40" as="geometry" />
        </mxCell>
        <mxCell id="3dwhWuTvUrP5A4k3dfD7-295" value="登录过程页面" style="shape=umlFrame;whiteSpace=wrap;html=1;strokeColor=#000000;fillColor=none;width=120;height=20;" parent="1" vertex="1">
          <mxGeometry x="3480" y="480" width="800" height="200" as="geometry" />
        </mxCell>
        <mxCell id="3dwhWuTvUrP5A4k3dfD7-296" value="绑定登录页面" style="shape=umlFrame;whiteSpace=wrap;html=1;strokeColor=#000000;fillColor=none;width=120;height=20;" parent="1" vertex="1">
          <mxGeometry x="3480" y="720" width="800" height="120" as="geometry" />
        </mxCell>
        <mxCell id="3dwhWuTvUrP5A4k3dfD7-297" value="额外操作" style="edgeStyle=none;rounded=0;orthogonalLoop=1;jettySize=auto;html=1;startArrow=none;startFill=0;endArrow=classic;endFill=1;" parent="1" source="3dwhWuTvUrP5A4k3dfD7-298" target="3dwhWuTvUrP5A4k3dfD7-295" edge="1">
          <mxGeometry relative="1" as="geometry">
            <mxPoint as="offset" />
          </mxGeometry>
        </mxCell>
        <mxCell id="3dwhWuTvUrP5A4k3dfD7-298" value="主要登录页面" style="shape=umlFrame;whiteSpace=wrap;html=1;strokeColor=#000000;fillColor=none;width=120;height=20;" parent="1" vertex="1">
          <mxGeometry x="3480" y="160" width="800" height="280" as="geometry" />
        </mxCell>
        <mxCell id="3dwhWuTvUrP5A4k3dfD7-299" value="" style="edgeStyle=orthogonalEdgeStyle;rounded=0;orthogonalLoop=1;jettySize=auto;html=1;entryX=0;entryY=0.5;entryDx=0;entryDy=0;entryPerimeter=0;exitX=0;exitY=0.5;exitDx=0;exitDy=0;exitPerimeter=0;" parent="1" source="3dwhWuTvUrP5A4k3dfD7-302" target="3dwhWuTvUrP5A4k3dfD7-306" edge="1">
          <mxGeometry relative="1" as="geometry">
            <mxPoint x="3720" y="50" as="sourcePoint" />
            <Array as="points">
              <mxPoint x="3400" y="60" />
              <mxPoint x="3400" y="900" />
            </Array>
          </mxGeometry>
        </mxCell>
        <mxCell id="3dwhWuTvUrP5A4k3dfD7-300" value="自动登录" style="edgeLabel;html=1;align=center;verticalAlign=middle;resizable=0;points=[];" parent="3dwhWuTvUrP5A4k3dfD7-299" vertex="1" connectable="0">
          <mxGeometry x="-0.8779" relative="1" as="geometry">
            <mxPoint x="44" as="offset" />
          </mxGeometry>
        </mxCell>
        <mxCell id="3dwhWuTvUrP5A4k3dfD7-301" value="根据上次登录方式选择" style="edgeStyle=none;rounded=0;orthogonalLoop=1;jettySize=auto;html=1;exitX=0.5;exitY=1;exitDx=0;exitDy=0;exitPerimeter=0;startArrow=none;startFill=0;endArrow=classic;endFill=1;" parent="1" source="3dwhWuTvUrP5A4k3dfD7-302" target="3dwhWuTvUrP5A4k3dfD7-298" edge="1">
          <mxGeometry relative="1" as="geometry" />
        </mxCell>
        <mxCell id="3dwhWuTvUrP5A4k3dfD7-302" value="牛牛App启动" style="strokeWidth=2;html=1;shape=mxgraph.flowchart.terminator;whiteSpace=wrap;fillColor=none;strokeColor=#CC99FF;" parent="1" vertex="1">
          <mxGeometry x="3800" y="40" width="160" height="40" as="geometry" />
        </mxCell>
        <mxCell id="3dwhWuTvUrP5A4k3dfD7-303" value="account/bindThird" style="edgeStyle=none;rounded=0;orthogonalLoop=1;jettySize=auto;html=1;exitX=0.5;exitY=0;exitDx=0;exitDy=0;exitPerimeter=0;startArrow=none;startFill=0;endArrow=classic;endFill=1;" parent="1" source="3dwhWuTvUrP5A4k3dfD7-306" target="3dwhWuTvUrP5A4k3dfD7-296" edge="1">
          <mxGeometry relative="1" as="geometry" />
        </mxCell>
        <mxCell id="3dwhWuTvUrP5A4k3dfD7-304" value="游客态去登录&lt;br&gt;退出登录&lt;br&gt;login scheme&lt;br&gt;帐号切换" style="edgeStyle=orthogonalEdgeStyle;rounded=0;orthogonalLoop=1;jettySize=auto;html=1;exitX=1;exitY=0.5;exitDx=0;exitDy=0;exitPerimeter=0;startArrow=none;startFill=0;endArrow=classic;endFill=1;" parent="1" source="3dwhWuTvUrP5A4k3dfD7-306" target="3dwhWuTvUrP5A4k3dfD7-298" edge="1">
          <mxGeometry x="-0.6" relative="1" as="geometry">
            <Array as="points">
              <mxPoint x="4360" y="900" />
              <mxPoint x="4360" y="300" />
            </Array>
            <mxPoint as="offset" />
          </mxGeometry>
        </mxCell>
        <mxCell id="3dwhWuTvUrP5A4k3dfD7-305" value="根据上次登录方式选择" style="edgeLabel;html=1;align=center;verticalAlign=middle;resizable=0;points=[];" parent="3dwhWuTvUrP5A4k3dfD7-304" vertex="1" connectable="0">
          <mxGeometry x="0.842" y="-1" relative="1" as="geometry">
            <mxPoint as="offset" />
          </mxGeometry>
        </mxCell>
        <mxCell id="3dwhWuTvUrP5A4k3dfD7-306" value="主界面" style="strokeWidth=2;html=1;shape=mxgraph.flowchart.terminator;whiteSpace=wrap;fillColor=none;strokeColor=#CC99FF;" parent="1" vertex="1">
          <mxGeometry x="3800" y="880" width="160" height="40" as="geometry" />
        </mxCell>
        <mxCell id="3dwhWuTvUrP5A4k3dfD7-308" style="rounded=0;orthogonalLoop=1;jettySize=auto;html=1;exitX=1;exitY=0.5;exitDx=0;exitDy=0;entryX=0;entryY=0.5;entryDx=0;entryDy=0;" parent="1" source="3dwhWuTvUrP5A4k3dfD7-309" target="3dwhWuTvUrP5A4k3dfD7-313" edge="1">
          <mxGeometry relative="1" as="geometry" />
        </mxCell>
        <mxCell id="9hEt3C56FuFohcuwkKSW-17" style="rounded=0;orthogonalLoop=1;jettySize=auto;html=1;exitX=0.5;exitY=0;exitDx=0;exitDy=0;entryX=0;entryY=0.5;entryDx=0;entryDy=0;startArrow=none;startFill=0;endArrow=classic;endFill=1;" edge="1" parent="1" source="3dwhWuTvUrP5A4k3dfD7-309" target="3dwhWuTvUrP5A4k3dfD7-310">
          <mxGeometry relative="1" as="geometry" />
        </mxCell>
        <mxCell id="3dwhWuTvUrP5A4k3dfD7-309" value="引导登录页" style="rounded=1;whiteSpace=wrap;html=1;absoluteArcSize=1;arcSize=14;strokeWidth=2;fillColor=none;" parent="1" vertex="1">
          <mxGeometry x="3601" y="280" width="160" height="40" as="geometry" />
        </mxCell>
        <mxCell id="3dwhWuTvUrP5A4k3dfD7-310" value="手机号一键登录页" style="rounded=1;whiteSpace=wrap;html=1;absoluteArcSize=1;arcSize=14;strokeWidth=2;fillColor=none;" parent="1" vertex="1">
          <mxGeometry x="3800" y="200" width="160" height="40" as="geometry" />
        </mxCell>
        <mxCell id="3dwhWuTvUrP5A4k3dfD7-311" style="rounded=0;orthogonalLoop=1;jettySize=auto;html=1;exitX=0.5;exitY=1;exitDx=0;exitDy=0;entryX=1;entryY=0.5;entryDx=0;entryDy=0;startArrow=classic;startFill=1;" parent="1" source="3dwhWuTvUrP5A4k3dfD7-313" target="3dwhWuTvUrP5A4k3dfD7-316" edge="1">
          <mxGeometry relative="1" as="geometry" />
        </mxCell>
        <mxCell id="3dwhWuTvUrP5A4k3dfD7-312" style="edgeStyle=none;rounded=0;orthogonalLoop=1;jettySize=auto;html=1;exitX=0.5;exitY=0;exitDx=0;exitDy=0;entryX=1;entryY=0.5;entryDx=0;entryDy=0;endArrow=classic;endFill=1;startArrow=classic;startFill=1;" parent="1" source="3dwhWuTvUrP5A4k3dfD7-313" target="3dwhWuTvUrP5A4k3dfD7-310" edge="1">
          <mxGeometry relative="1" as="geometry" />
        </mxCell>
        <mxCell id="3dwhWuTvUrP5A4k3dfD7-313" value="手机号短信/密码登录页" style="rounded=1;whiteSpace=wrap;html=1;absoluteArcSize=1;arcSize=14;strokeWidth=2;fillColor=none;" parent="1" vertex="1">
          <mxGeometry x="4000" y="280" width="160" height="40" as="geometry" />
        </mxCell>
        <mxCell id="3dwhWuTvUrP5A4k3dfD7-314" style="rounded=0;orthogonalLoop=1;jettySize=auto;html=1;exitX=0.5;exitY=0;exitDx=0;exitDy=0;entryX=0.5;entryY=1;entryDx=0;entryDy=0;startArrow=classic;startFill=1;" parent="1" source="3dwhWuTvUrP5A4k3dfD7-316" target="3dwhWuTvUrP5A4k3dfD7-310" edge="1">
          <mxGeometry relative="1" as="geometry" />
        </mxCell>
        <mxCell id="3dwhWuTvUrP5A4k3dfD7-315" style="edgeStyle=none;rounded=0;orthogonalLoop=1;jettySize=auto;html=1;exitX=0;exitY=0.5;exitDx=0;exitDy=0;entryX=0.5;entryY=1;entryDx=0;entryDy=0;startArrow=classic;startFill=1;" parent="1" source="3dwhWuTvUrP5A4k3dfD7-316" target="3dwhWuTvUrP5A4k3dfD7-309" edge="1">
          <mxGeometry relative="1" as="geometry" />
        </mxCell>
        <mxCell id="3dwhWuTvUrP5A4k3dfD7-316" value="帐号密码登录页" style="rounded=1;whiteSpace=wrap;html=1;absoluteArcSize=1;arcSize=14;strokeWidth=2;fillColor=none;" parent="1" vertex="1">
          <mxGeometry x="3800" y="360" width="160" height="40" as="geometry" />
        </mxCell>
        <mxCell id="3dwhWuTvUrP5A4k3dfD7-317" value="验证短信页" style="rounded=1;whiteSpace=wrap;html=1;absoluteArcSize=1;arcSize=14;strokeWidth=2;fillColor=none;" parent="1" vertex="1">
          <mxGeometry x="3699" y="520" width="160" height="40" as="geometry" />
        </mxCell>
        <mxCell id="3dwhWuTvUrP5A4k3dfD7-318" value="&lt;span style=&quot;font-weight: normal&quot;&gt;验证登录密码页&lt;/span&gt;" style="rounded=1;whiteSpace=wrap;html=1;absoluteArcSize=1;arcSize=14;strokeWidth=2;fillColor=none;fontStyle=1" parent="1" vertex="1">
          <mxGeometry x="3500" y="520" width="160" height="40" as="geometry" />
        </mxCell>
        <mxCell id="3dwhWuTvUrP5A4k3dfD7-319" value="三方引导绑定手机号页" style="rounded=1;whiteSpace=wrap;html=1;absoluteArcSize=1;arcSize=14;strokeWidth=2;fillColor=none;" parent="1" vertex="1">
          <mxGeometry x="3899" y="520" width="160" height="40" as="geometry" />
        </mxCell>
        <mxCell id="3dwhWuTvUrP5A4k3dfD7-320" value="验证图形验证码页" style="rounded=1;whiteSpace=wrap;html=1;absoluteArcSize=1;arcSize=14;strokeWidth=2;fillColor=none;" parent="1" vertex="1">
          <mxGeometry x="4099" y="520" width="160" height="40" as="geometry" />
        </mxCell>
        <mxCell id="3dwhWuTvUrP5A4k3dfD7-321" value="绑定手机号页" style="rounded=1;whiteSpace=wrap;html=1;absoluteArcSize=1;arcSize=14;strokeWidth=2;fillColor=none;" parent="1" vertex="1">
          <mxGeometry x="3600" y="760" width="160" height="40" as="geometry" />
        </mxCell>
        <mxCell id="3dwhWuTvUrP5A4k3dfD7-322" style="edgeStyle=none;rounded=0;orthogonalLoop=1;jettySize=auto;html=1;exitX=0;exitY=0.5;exitDx=0;exitDy=0;startArrow=classic;startFill=1;endArrow=classic;endFill=1;" parent="1" source="3dwhWuTvUrP5A4k3dfD7-323" target="3dwhWuTvUrP5A4k3dfD7-321" edge="1">
          <mxGeometry relative="1" as="geometry" />
        </mxCell>
        <mxCell id="3dwhWuTvUrP5A4k3dfD7-323" value="绑定帐号页" style="rounded=1;whiteSpace=wrap;html=1;absoluteArcSize=1;arcSize=14;strokeWidth=2;fillColor=none;" parent="1" vertex="1">
          <mxGeometry x="4000" y="760" width="160" height="40" as="geometry" />
        </mxCell>
        <mxCell id="3dwhWuTvUrP5A4k3dfD7-324" value="" style="edgeStyle=orthogonalEdgeStyle;rounded=0;orthogonalLoop=1;jettySize=auto;html=1;entryX=0;entryY=0.5;entryDx=0;entryDy=0;entryPerimeter=0;" parent="1" source="3dwhWuTvUrP5A4k3dfD7-298" target="3dwhWuTvUrP5A4k3dfD7-306" edge="1">
          <mxGeometry x="-1" y="-354" relative="1" as="geometry">
            <mxPoint x="3720" y="50" as="sourcePoint" />
            <Array as="points">
              <mxPoint x="3400" y="300" />
              <mxPoint x="3400" y="900" />
            </Array>
            <mxPoint x="260" y="114" as="offset" />
          </mxGeometry>
        </mxCell>
        <mxCell id="3dwhWuTvUrP5A4k3dfD7-325" value="" style="edgeStyle=orthogonalEdgeStyle;rounded=0;orthogonalLoop=1;jettySize=auto;html=1;entryX=0;entryY=0.5;entryDx=0;entryDy=0;entryPerimeter=0;" parent="1" source="3dwhWuTvUrP5A4k3dfD7-295" target="3dwhWuTvUrP5A4k3dfD7-306" edge="1">
          <mxGeometry x="-1" y="-354" relative="1" as="geometry">
            <mxPoint x="3720" y="50" as="sourcePoint" />
            <Array as="points">
              <mxPoint x="3400" y="540" />
              <mxPoint x="3400" y="900" />
            </Array>
            <mxPoint x="260" y="114" as="offset" />
          </mxGeometry>
        </mxCell>
        <mxCell id="3dwhWuTvUrP5A4k3dfD7-327" value="Moomoo App启动" style="strokeWidth=2;html=1;shape=mxgraph.flowchart.terminator;whiteSpace=wrap;fillColor=none;strokeColor=#CC99FF;" parent="1" vertex="1">
          <mxGeometry x="3800" y="960" width="160" height="40" as="geometry" />
        </mxCell>
        <mxCell id="3dwhWuTvUrP5A4k3dfD7-328" style="edgeStyle=orthogonalEdgeStyle;rounded=0;orthogonalLoop=1;jettySize=auto;html=1;startArrow=classic;startFill=1;endArrow=classic;endFill=1;" parent="1" source="3dwhWuTvUrP5A4k3dfD7-330" target="3dwhWuTvUrP5A4k3dfD7-341" edge="1">
          <mxGeometry relative="1" as="geometry" />
        </mxCell>
        <mxCell id="3dwhWuTvUrP5A4k3dfD7-329" style="edgeStyle=orthogonalEdgeStyle;rounded=0;orthogonalLoop=1;jettySize=auto;html=1;exitX=0.75;exitY=0;exitDx=0;exitDy=0;entryX=0.25;entryY=1;entryDx=0;entryDy=0;startArrow=classic;startFill=1;endArrow=classic;endFill=1;" parent="1" source="3dwhWuTvUrP5A4k3dfD7-330" target="3dwhWuTvUrP5A4k3dfD7-333" edge="1">
          <mxGeometry relative="1" as="geometry" />
        </mxCell>
        <mxCell id="3dwhWuTvUrP5A4k3dfD7-330" value="引导登录页" style="rounded=1;whiteSpace=wrap;html=1;absoluteArcSize=1;arcSize=14;strokeWidth=2;fillColor=none;" parent="1" vertex="1">
          <mxGeometry x="3601" y="1200" width="160" height="40" as="geometry" />
        </mxCell>
        <mxCell id="3dwhWuTvUrP5A4k3dfD7-331" style="edgeStyle=orthogonalEdgeStyle;rounded=0;orthogonalLoop=1;jettySize=auto;html=1;exitX=0.5;exitY=1;exitDx=0;exitDy=0;startArrow=classic;startFill=1;endArrow=classic;endFill=1;" parent="1" source="3dwhWuTvUrP5A4k3dfD7-333" target="3dwhWuTvUrP5A4k3dfD7-341" edge="1">
          <mxGeometry relative="1" as="geometry" />
        </mxCell>
        <mxCell id="3dwhWuTvUrP5A4k3dfD7-332" style="edgeStyle=orthogonalEdgeStyle;rounded=0;orthogonalLoop=1;jettySize=auto;html=1;exitX=1;exitY=0.5;exitDx=0;exitDy=0;startArrow=classic;startFill=1;endArrow=classic;endFill=1;" parent="1" source="3dwhWuTvUrP5A4k3dfD7-333" target="3dwhWuTvUrP5A4k3dfD7-338" edge="1">
          <mxGeometry relative="1" as="geometry" />
        </mxCell>
        <mxCell id="3dwhWuTvUrP5A4k3dfD7-333" value="帐号密码登录页" style="rounded=1;whiteSpace=wrap;html=1;absoluteArcSize=1;arcSize=14;strokeWidth=2;fillColor=none;" parent="1" vertex="1">
          <mxGeometry x="3800" y="1120" width="160" height="40" as="geometry" />
        </mxCell>
        <mxCell id="3dwhWuTvUrP5A4k3dfD7-334" style="edgeStyle=orthogonalEdgeStyle;rounded=0;orthogonalLoop=1;jettySize=auto;html=1;exitX=1;exitY=0.5;exitDx=0;exitDy=0;startArrow=classic;startFill=1;endArrow=classic;endFill=1;" parent="1" source="3dwhWuTvUrP5A4k3dfD7-336" target="3dwhWuTvUrP5A4k3dfD7-333" edge="1">
          <mxGeometry relative="1" as="geometry" />
        </mxCell>
        <mxCell id="3dwhWuTvUrP5A4k3dfD7-335" style="edgeStyle=orthogonalEdgeStyle;rounded=0;orthogonalLoop=1;jettySize=auto;html=1;exitX=0.5;exitY=1;exitDx=0;exitDy=0;startArrow=classic;startFill=1;endArrow=classic;endFill=1;" parent="1" source="3dwhWuTvUrP5A4k3dfD7-336" target="3dwhWuTvUrP5A4k3dfD7-330" edge="1">
          <mxGeometry relative="1" as="geometry" />
        </mxCell>
        <mxCell id="3dwhWuTvUrP5A4k3dfD7-336" value="首次登录页" style="rounded=1;whiteSpace=wrap;html=1;absoluteArcSize=1;arcSize=14;strokeWidth=2;fillColor=none;" parent="1" vertex="1">
          <mxGeometry x="3601" y="1120" width="160" height="40" as="geometry" />
        </mxCell>
        <mxCell id="3dwhWuTvUrP5A4k3dfD7-337" style="edgeStyle=orthogonalEdgeStyle;rounded=0;orthogonalLoop=1;jettySize=auto;html=1;exitX=0.5;exitY=1;exitDx=0;exitDy=0;entryX=1;entryY=0.5;entryDx=0;entryDy=0;startArrow=classic;startFill=1;endArrow=classic;endFill=1;" parent="1" source="3dwhWuTvUrP5A4k3dfD7-338" target="3dwhWuTvUrP5A4k3dfD7-341" edge="1">
          <mxGeometry relative="1" as="geometry" />
        </mxCell>
        <mxCell id="3dwhWuTvUrP5A4k3dfD7-338" value="手机号密码登录页" style="rounded=1;whiteSpace=wrap;html=1;absoluteArcSize=1;arcSize=14;strokeWidth=2;fillColor=none;" parent="1" vertex="1">
          <mxGeometry x="4000" y="1120" width="160" height="40" as="geometry" />
        </mxCell>
        <mxCell id="3dwhWuTvUrP5A4k3dfD7-339" style="edgeStyle=orthogonalEdgeStyle;rounded=0;orthogonalLoop=1;jettySize=auto;html=1;exitX=0.25;exitY=1;exitDx=0;exitDy=0;entryX=1;entryY=0.5;entryDx=0;entryDy=0;startArrow=classic;startFill=1;endArrow=classic;endFill=1;" parent="1" source="3dwhWuTvUrP5A4k3dfD7-341" target="3dwhWuTvUrP5A4k3dfD7-344" edge="1">
          <mxGeometry relative="1" as="geometry" />
        </mxCell>
        <mxCell id="3dwhWuTvUrP5A4k3dfD7-340" style="edgeStyle=orthogonalEdgeStyle;rounded=0;orthogonalLoop=1;jettySize=auto;html=1;exitX=0.75;exitY=1;exitDx=0;exitDy=0;entryX=0.25;entryY=0;entryDx=0;entryDy=0;startArrow=classic;startFill=1;endArrow=classic;endFill=1;" parent="1" source="3dwhWuTvUrP5A4k3dfD7-341" target="3dwhWuTvUrP5A4k3dfD7-346" edge="1">
          <mxGeometry relative="1" as="geometry" />
        </mxCell>
        <mxCell id="3dwhWuTvUrP5A4k3dfD7-341" value="邮箱/手机注册页" style="rounded=1;whiteSpace=wrap;html=1;absoluteArcSize=1;arcSize=14;strokeWidth=2;fillColor=none;" parent="1" vertex="1">
          <mxGeometry x="3800" y="1200" width="160" height="40" as="geometry" />
        </mxCell>
        <mxCell id="3dwhWuTvUrP5A4k3dfD7-342" style="edgeStyle=orthogonalEdgeStyle;rounded=0;orthogonalLoop=1;jettySize=auto;html=1;exitX=1;exitY=0.5;exitDx=0;exitDy=0;startArrow=classic;startFill=1;endArrow=classic;endFill=1;" parent="1" source="3dwhWuTvUrP5A4k3dfD7-330" target="3dwhWuTvUrP5A4k3dfD7-341" edge="1">
          <mxGeometry relative="1" as="geometry">
            <mxPoint x="3761" y="1220" as="sourcePoint" />
            <mxPoint x="3880" y="1160" as="targetPoint" />
          </mxGeometry>
        </mxCell>
        <mxCell id="3dwhWuTvUrP5A4k3dfD7-343" style="edgeStyle=orthogonalEdgeStyle;rounded=0;orthogonalLoop=1;jettySize=auto;html=1;exitX=0;exitY=0.5;exitDx=0;exitDy=0;entryX=0.25;entryY=0;entryDx=0;entryDy=0;startArrow=classic;startFill=1;endArrow=classic;endFill=1;" parent="1" source="3dwhWuTvUrP5A4k3dfD7-344" target="3dwhWuTvUrP5A4k3dfD7-333" edge="1">
          <mxGeometry relative="1" as="geometry">
            <Array as="points">
              <mxPoint x="3580" y="1300" />
              <mxPoint x="3580" y="1100" />
              <mxPoint x="3840" y="1100" />
            </Array>
          </mxGeometry>
        </mxCell>
        <mxCell id="3dwhWuTvUrP5A4k3dfD7-344" value="邮箱注册设置密码" style="rounded=1;whiteSpace=wrap;html=1;absoluteArcSize=1;arcSize=14;strokeWidth=2;fillColor=none;" parent="1" vertex="1">
          <mxGeometry x="3600" y="1280" width="160" height="40" as="geometry" />
        </mxCell>
        <mxCell id="3dwhWuTvUrP5A4k3dfD7-345" style="edgeStyle=orthogonalEdgeStyle;rounded=0;orthogonalLoop=1;jettySize=auto;html=1;exitX=1;exitY=0.5;exitDx=0;exitDy=0;startArrow=classic;startFill=1;endArrow=classic;endFill=1;" parent="1" source="3dwhWuTvUrP5A4k3dfD7-346" target="3dwhWuTvUrP5A4k3dfD7-348" edge="1">
          <mxGeometry relative="1" as="geometry" />
        </mxCell>
        <mxCell id="3dwhWuTvUrP5A4k3dfD7-346" value="手机注册短信验证" style="rounded=1;whiteSpace=wrap;html=1;absoluteArcSize=1;arcSize=14;strokeWidth=2;fillColor=none;" parent="1" vertex="1">
          <mxGeometry x="3880" y="1280" width="160" height="40" as="geometry" />
        </mxCell>
        <mxCell id="3dwhWuTvUrP5A4k3dfD7-347" style="edgeStyle=orthogonalEdgeStyle;rounded=0;orthogonalLoop=1;jettySize=auto;html=1;exitX=0.75;exitY=0;exitDx=0;exitDy=0;entryX=0.75;entryY=0;entryDx=0;entryDy=0;startArrow=classic;startFill=1;endArrow=classic;endFill=1;" parent="1" source="3dwhWuTvUrP5A4k3dfD7-348" target="3dwhWuTvUrP5A4k3dfD7-333" edge="1">
          <mxGeometry relative="1" as="geometry" />
        </mxCell>
        <mxCell id="3dwhWuTvUrP5A4k3dfD7-348" value="手机注册设置密码" style="rounded=1;whiteSpace=wrap;html=1;absoluteArcSize=1;arcSize=14;strokeWidth=2;fillColor=none;" parent="1" vertex="1">
          <mxGeometry x="4080" y="1280" width="160" height="40" as="geometry" />
        </mxCell>
        <mxCell id="3dwhWuTvUrP5A4k3dfD7-349" value="认证手机号页" style="rounded=1;whiteSpace=wrap;html=1;absoluteArcSize=1;arcSize=14;strokeWidth=2;fillColor=none;" parent="1" vertex="1">
          <mxGeometry x="3500" y="600" width="160" height="40" as="geometry" />
        </mxCell>
        <mxCell id="3dwhWuTvUrP5A4k3dfD7-350" value="选择国家/地区界面" style="rounded=1;whiteSpace=wrap;html=1;absoluteArcSize=1;arcSize=14;strokeWidth=2;fillColor=none;" parent="1" vertex="1">
          <mxGeometry x="3700" y="600" width="160" height="40" as="geometry" />
        </mxCell>
        <mxCell id="3dwhWuTvUrP5A4k3dfD7-351" value="登录过程页面" style="shape=umlFrame;whiteSpace=wrap;html=1;strokeColor=#000000;fillColor=none;width=120;height=20;" parent="1" vertex="1">
          <mxGeometry x="3480" y="1440" width="800" height="200" as="geometry" />
        </mxCell>
        <mxCell id="3dwhWuTvUrP5A4k3dfD7-352" value="验证短信页" style="rounded=1;whiteSpace=wrap;html=1;absoluteArcSize=1;arcSize=14;strokeWidth=2;fillColor=none;" parent="1" vertex="1">
          <mxGeometry x="3699" y="1480" width="160" height="40" as="geometry" />
        </mxCell>
        <mxCell id="3dwhWuTvUrP5A4k3dfD7-353" value="验证登录密码页" style="rounded=1;whiteSpace=wrap;html=1;absoluteArcSize=1;arcSize=14;strokeWidth=2;fillColor=none;fontStyle=1" parent="1" vertex="1">
          <mxGeometry x="3500" y="1480" width="160" height="40" as="geometry" />
        </mxCell>
        <mxCell id="3dwhWuTvUrP5A4k3dfD7-354" value="三方引导绑定帐号页" style="rounded=1;whiteSpace=wrap;html=1;absoluteArcSize=1;arcSize=14;strokeWidth=2;fillColor=none;" parent="1" vertex="1">
          <mxGeometry x="3899" y="1480" width="160" height="40" as="geometry" />
        </mxCell>
        <mxCell id="3dwhWuTvUrP5A4k3dfD7-355" value="验证图形验证码页" style="rounded=1;whiteSpace=wrap;html=1;absoluteArcSize=1;arcSize=14;strokeWidth=2;fillColor=none;" parent="1" vertex="1">
          <mxGeometry x="4099" y="1480" width="160" height="40" as="geometry" />
        </mxCell>
        <mxCell id="3dwhWuTvUrP5A4k3dfD7-356" value="认证手机号页" style="rounded=1;whiteSpace=wrap;html=1;absoluteArcSize=1;arcSize=14;strokeWidth=2;fillColor=none;" parent="1" vertex="1">
          <mxGeometry x="3500" y="1560" width="160" height="40" as="geometry" />
        </mxCell>
        <mxCell id="3dwhWuTvUrP5A4k3dfD7-357" value="选择国家/地区界面" style="rounded=1;whiteSpace=wrap;html=1;absoluteArcSize=1;arcSize=14;strokeWidth=2;fillColor=none;" parent="1" vertex="1">
          <mxGeometry x="3700" y="1560" width="160" height="40" as="geometry" />
        </mxCell>
        <mxCell id="3dwhWuTvUrP5A4k3dfD7-358" value="绑定登录页面" style="shape=umlFrame;whiteSpace=wrap;html=1;strokeColor=#000000;fillColor=none;width=120;height=20;" parent="1" vertex="1">
          <mxGeometry x="3480" y="1760" width="800" height="120" as="geometry" />
        </mxCell>
        <mxCell id="3dwhWuTvUrP5A4k3dfD7-359" value="绑定手机号页" style="rounded=1;whiteSpace=wrap;html=1;absoluteArcSize=1;arcSize=14;strokeWidth=2;fillColor=none;" parent="1" vertex="1">
          <mxGeometry x="3600" y="1800" width="160" height="40" as="geometry" />
        </mxCell>
        <mxCell id="3dwhWuTvUrP5A4k3dfD7-360" style="edgeStyle=none;rounded=0;orthogonalLoop=1;jettySize=auto;html=1;exitX=0;exitY=0.5;exitDx=0;exitDy=0;startArrow=classic;startFill=1;endArrow=classic;endFill=1;" parent="1" source="3dwhWuTvUrP5A4k3dfD7-361" target="3dwhWuTvUrP5A4k3dfD7-359" edge="1">
          <mxGeometry relative="1" as="geometry" />
        </mxCell>
        <mxCell id="3dwhWuTvUrP5A4k3dfD7-361" value="绑定帐号页" style="rounded=1;whiteSpace=wrap;html=1;absoluteArcSize=1;arcSize=14;strokeWidth=2;fillColor=none;" parent="1" vertex="1">
          <mxGeometry x="4000" y="1800" width="160" height="40" as="geometry" />
        </mxCell>
        <mxCell id="3dwhWuTvUrP5A4k3dfD7-362" value="GOOGLE一键登录页" style="rounded=1;whiteSpace=wrap;html=1;absoluteArcSize=1;arcSize=14;strokeWidth=2;fillColor=none;" parent="1" vertex="1">
          <mxGeometry x="3600" y="1360" width="160" height="40" as="geometry" />
        </mxCell>
      </root>
    </mxGraphModel>
  </diagram>
</mxfile>
